<svg width="200" height="200" viewBox="0 0 200 200" fill="none" xmlns="http://www.w3.org/2000/svg">
<path d="M20.45 133.838C22.7941 136.181 25.9729 137.497 29.2875 137.497C32.602 137.497 35.7809 136.181 38.125 133.838L100 71.9626L161.875 133.838C164.233 136.115 167.39 137.375 170.668 137.346C173.945 137.318 177.08 136.003 179.398 133.685C181.715 131.368 183.03 128.233 183.058 124.955C183.087 121.678 181.827 118.52 179.55 116.163L108.837 45.4501C106.493 43.1067 103.315 41.7903 100 41.7903C96.6854 41.7903 93.5066 43.1067 91.1625 45.4501L20.45 116.163C18.1066 118.507 16.7902 121.686 16.7902 125C16.7902 128.315 18.1066 131.494 20.45 133.838Z" fill="white"/>
</svg>
