<svg width="1440" height="285" viewBox="0 0 1440 285" fill="none" xmlns="http://www.w3.org/2000/svg">
<g opacity="0.05" clip-path="url(#clip0_42_286)">
<path fill-rule="evenodd" clip-rule="evenodd" d="M143.1 140.496V142.369H-1V140.496H25.5447V133.003H6.58421V114.27H-1V112.397H6.58421V74.9311H46.4013V93.6639H65.3618V133.003H27.4408V140.496H112.763V133.003H74.8421V93.6639H93.8026V74.9311H133.62V112.397H141.204V28.0992H133.62V65.5647H93.8026V46.832H74.8421V7.49311H112.763V0H114.659V7.49311H133.62V26.2259H141.204V0H143.1V140.496ZM141.204 140.496V114.27H133.62V133.003H114.659V140.496H141.204ZM76.7382 28.0992V44.9587H93.8026V28.0992H76.7382ZM95.6987 44.9587H114.659V63.6915H131.724V28.0992H112.763V9.36639H76.7382V26.2259H95.6987V44.9587ZM95.6987 46.832V63.6915H112.763V46.832H95.6987ZM114.659 26.2259H131.724V9.36639H114.659V26.2259ZM63.4658 112.397V95.5372H46.4013V112.397H63.4658ZM44.5053 95.5372H25.5447V76.8044H8.48026V112.397H27.4408V131.129H63.4658V114.27H44.5053V95.5372ZM44.5053 93.6639V76.8044H27.4408V93.6639H44.5053ZM25.5447 114.27H8.48026V131.129H25.5447V114.27ZM76.7382 114.27V131.129H112.763V112.397H131.724V76.8044H114.659V95.5372H95.6987V114.27H76.7382ZM93.8026 95.5372H76.7382V112.397H93.8026V95.5372ZM95.6987 93.6639H112.763V76.8044H95.6987V93.6639ZM114.659 131.129V114.27H131.724V131.129H114.659ZM27.4408 0H25.5447V7.49311H6.58421V26.2259H-1V28.0992H6.58421V65.5647H46.4013V46.832H65.3618V7.49311H27.4408V0ZM46.4013 44.9587H63.4658V28.0992H46.4013V44.9587ZM63.4658 26.2259H44.5053V44.9587H25.5447V63.6915H8.48026V28.0992H27.4408V9.36639H63.4658V26.2259ZM27.4408 46.832H44.5053V63.6915H27.4408V46.832ZM25.5447 9.36639H8.48026V26.2259H25.5447V9.36639Z" fill="black"/>
</g>
<g opacity="0.05" clip-path="url(#clip1_42_286)">
<path fill-rule="evenodd" clip-rule="evenodd" d="M287.2 140.496V142.369H143.1V140.496H169.645V133.003H150.684V114.27H143.1V112.397H150.684V74.9311H190.501V93.6639H209.462V133.003H171.541V140.496H256.863V133.003H218.942V93.6639H237.903V74.9311H277.72V112.397H285.304V28.0992H277.72V65.5647H237.903V46.832H218.942V7.49311H256.863V0H258.759V7.49311H277.72V26.2259H285.304V0H287.2V140.496ZM285.304 140.496V114.27H277.72V133.003H258.759V140.496H285.304ZM220.838 28.0992V44.9587H237.903V28.0992H220.838ZM239.799 44.9587H258.759V63.6915H275.824V28.0992H256.863V9.36639H220.838V26.2259H239.799V44.9587ZM239.799 46.832V63.6915H256.863V46.832H239.799ZM258.759 26.2259H275.824V9.36639H258.759V26.2259ZM207.566 112.397V95.5372H190.501V112.397H207.566ZM188.605 95.5372H169.645V76.8044H152.58V112.397H171.541V131.129H207.566V114.27H188.605V95.5372ZM188.605 93.6639V76.8044H171.541V93.6639H188.605ZM169.645 114.27H152.58V131.129H169.645V114.27ZM220.838 114.27V131.129H256.863V112.397H275.824V76.8044H258.759V95.5372H239.799V114.27H220.838ZM237.903 95.5372H220.838V112.397H237.903V95.5372ZM239.799 93.6639H256.863V76.8044H239.799V93.6639ZM258.759 131.129V114.27H275.824V131.129H258.759ZM171.541 0H169.645V7.49311H150.684V26.2259H143.1V28.0992H150.684V65.5647H190.501V46.832H209.462V7.49311H171.541V0ZM190.501 44.9587H207.566V28.0992H190.501V44.9587ZM207.566 26.2259H188.605V44.9587H169.645V63.6915H152.58V28.0992H171.541V9.36639H207.566V26.2259ZM171.541 46.832H188.605V63.6915H171.541V46.832ZM169.645 9.36639H152.58V26.2259H169.645V9.36639Z" fill="black"/>
</g>
<g opacity="0.05" clip-path="url(#clip2_42_286)">
<path fill-rule="evenodd" clip-rule="evenodd" d="M431.3 140.496V142.369H287.2V140.496H313.745V133.003H294.784V114.27H287.2V112.397H294.784V74.9311H334.601V93.6639H353.562V133.003H315.641V140.496H400.963V133.003H363.042V93.6639H382.003V74.9311H421.82V112.397H429.404V28.0992H421.82V65.5647H382.003V46.832H363.042V7.49311H400.963V0H402.859V7.49311H421.82V26.2259H429.404V0H431.3V140.496ZM429.404 140.496V114.27H421.82V133.003H402.859V140.496H429.404ZM364.938 28.0992V44.9587H382.003V28.0992H364.938ZM383.899 44.9587H402.859V63.6915H419.924V28.0992H400.963V9.36639H364.938V26.2259H383.899V44.9587ZM383.899 46.832V63.6915H400.963V46.832H383.899ZM402.859 26.2259H419.924V9.36639H402.859V26.2259ZM351.666 112.397V95.5372H334.601V112.397H351.666ZM332.705 95.5372H313.745V76.8044H296.68V112.397H315.641V131.129H351.666V114.27H332.705V95.5372ZM332.705 93.6639V76.8044H315.641V93.6639H332.705ZM313.745 114.27H296.68V131.129H313.745V114.27ZM364.938 114.27V131.129H400.963V112.397H419.924V76.8044H402.859V95.5372H383.899V114.27H364.938ZM382.003 95.5372H364.938V112.397H382.003V95.5372ZM383.899 93.6639H400.963V76.8044H383.899V93.6639ZM402.859 131.129V114.27H419.924V131.129H402.859ZM315.641 0H313.745V7.49311H294.784V26.2259H287.2V28.0992H294.784V65.5647H334.601V46.832H353.562V7.49311H315.641V0ZM334.601 44.9587H351.666V28.0992H334.601V44.9587ZM351.666 26.2259H332.705V44.9587H313.745V63.6915H296.68V28.0992H315.641V9.36639H351.666V26.2259ZM315.641 46.832H332.705V63.6915H315.641V46.832ZM313.745 9.36639H296.68V26.2259H313.745V9.36639Z" fill="black"/>
</g>
<g opacity="0.05" clip-path="url(#clip3_42_286)">
<path fill-rule="evenodd" clip-rule="evenodd" d="M575.4 140.496V142.369H431.3V140.496H457.845V133.003H438.884V114.27H431.3V112.397H438.884V74.9311H478.701V93.6639H497.662V133.003H459.741V140.496H545.063V133.003H507.142V93.6639H526.103V74.9311H565.92V112.397H573.504V28.0992H565.92V65.5647H526.103V46.832H507.142V7.49311H545.063V0H546.959V7.49311H565.92V26.2259H573.504V0H575.4V140.496ZM573.504 140.496V114.27H565.92V133.003H546.959V140.496H573.504ZM509.038 28.0992V44.9587H526.103V28.0992H509.038ZM527.999 44.9587H546.959V63.6915H564.024V28.0992H545.063V9.36639H509.038V26.2259H527.999V44.9587ZM527.999 46.832V63.6915H545.063V46.832H527.999ZM546.959 26.2259H564.024V9.36639H546.959V26.2259ZM495.766 112.397V95.5372H478.701V112.397H495.766ZM476.805 95.5372H457.845V76.8044H440.78V112.397H459.741V131.129H495.766V114.27H476.805V95.5372ZM476.805 93.6639V76.8044H459.741V93.6639H476.805ZM457.845 114.27H440.78V131.129H457.845V114.27ZM509.038 114.27V131.129H545.063V112.397H564.024V76.8044H546.959V95.5372H527.999V114.27H509.038ZM526.103 95.5372H509.038V112.397H526.103V95.5372ZM527.999 93.6639H545.063V76.8044H527.999V93.6639ZM546.959 131.129V114.27H564.024V131.129H546.959ZM459.741 0H457.845V7.49311H438.884V26.2259H431.3V28.0992H438.884V65.5647H478.701V46.832H497.662V7.49311H459.741V0ZM478.701 44.9587H495.766V28.0992H478.701V44.9587ZM495.766 26.2259H476.805V44.9587H457.845V63.6915H440.78V28.0992H459.741V9.36639H495.766V26.2259ZM459.741 46.832H476.805V63.6915H459.741V46.832ZM457.845 9.36639H440.78V26.2259H457.845V9.36639Z" fill="black"/>
</g>
<g opacity="0.05" clip-path="url(#clip4_42_286)">
<path fill-rule="evenodd" clip-rule="evenodd" d="M719.5 140.496V142.369H575.4V140.496H601.945V133.003H582.984V114.27H575.4V112.397H582.984V74.9311H622.801V93.6639H641.762V133.003H603.841V140.496H689.163V133.003H651.242V93.6639H670.203V74.9311H710.02V112.397H717.604V28.0992H710.02V65.5647H670.203V46.832H651.242V7.49311H689.163V0H691.059V7.49311H710.02V26.2259H717.604V0H719.5V140.496ZM717.604 140.496V114.27H710.02V133.003H691.059V140.496H717.604ZM653.138 28.0992V44.9587H670.203V28.0992H653.138ZM672.099 44.9587H691.059V63.6915H708.124V28.0992H689.163V9.36639H653.138V26.2259H672.099V44.9587ZM672.099 46.832V63.6915H689.163V46.832H672.099ZM691.059 26.2259H708.124V9.36639H691.059V26.2259ZM639.866 112.397V95.5372H622.801V112.397H639.866ZM620.905 95.5372H601.945V76.8044H584.88V112.397H603.841V131.129H639.866V114.27H620.905V95.5372ZM620.905 93.6639V76.8044H603.841V93.6639H620.905ZM601.945 114.27H584.88V131.129H601.945V114.27ZM653.138 114.27V131.129H689.163V112.397H708.124V76.8044H691.059V95.5372H672.099V114.27H653.138ZM670.203 95.5372H653.138V112.397H670.203V95.5372ZM672.099 93.6639H689.163V76.8044H672.099V93.6639ZM691.059 131.129V114.27H708.124V131.129H691.059ZM603.841 0H601.945V7.49311H582.984V26.2259H575.4V28.0992H582.984V65.5647H622.801V46.832H641.762V7.49311H603.841V0ZM622.801 44.9587H639.866V28.0992H622.801V44.9587ZM639.866 26.2259H620.905V44.9587H601.945V63.6915H584.88V28.0992H603.841V9.36639H639.866V26.2259ZM603.841 46.832H620.905V63.6915H603.841V46.832ZM601.945 9.36639H584.88V26.2259H601.945V9.36639Z" fill="black"/>
</g>
<g opacity="0.05" clip-path="url(#clip5_42_286)">
<path fill-rule="evenodd" clip-rule="evenodd" d="M863.6 140.496V142.369H719.5V140.496H746.045V133.003H727.084V114.27H719.5V112.397H727.084V74.9311H766.901V93.6639H785.862V133.003H747.941V140.496H833.263V133.003H795.342V93.6639H814.303V74.9311H854.12V112.397H861.704V28.0992H854.12V65.5647H814.303V46.832H795.342V7.49311H833.263V0H835.159V7.49311H854.12V26.2259H861.704V0H863.6V140.496ZM861.704 140.496V114.27H854.12V133.003H835.159V140.496H861.704ZM797.238 28.0992V44.9587H814.303V28.0992H797.238ZM816.199 44.9587H835.159V63.6915H852.224V28.0992H833.263V9.36639H797.238V26.2259H816.199V44.9587ZM816.199 46.832V63.6915H833.263V46.832H816.199ZM835.159 26.2259H852.224V9.36639H835.159V26.2259ZM783.966 112.397V95.5372H766.901V112.397H783.966ZM765.005 95.5372H746.045V76.8044H728.98V112.397H747.941V131.129H783.966V114.27H765.005V95.5372ZM765.005 93.6639V76.8044H747.941V93.6639H765.005ZM746.045 114.27H728.98V131.129H746.045V114.27ZM797.238 114.27V131.129H833.263V112.397H852.224V76.8044H835.159V95.5372H816.199V114.27H797.238ZM814.303 95.5372H797.238V112.397H814.303V95.5372ZM816.199 93.6639H833.263V76.8044H816.199V93.6639ZM835.159 131.129V114.27H852.224V131.129H835.159ZM747.941 0H746.045V7.49311H727.084V26.2259H719.5V28.0992H727.084V65.5647H766.901V46.832H785.862V7.49311H747.941V0ZM766.901 44.9587H783.966V28.0992H766.901V44.9587ZM783.966 26.2259H765.005V44.9587H746.045V63.6915H728.98V28.0992H747.941V9.36639H783.966V26.2259ZM747.941 46.832H765.005V63.6915H747.941V46.832ZM746.045 9.36639H728.98V26.2259H746.045V9.36639Z" fill="black"/>
</g>
<g opacity="0.05" clip-path="url(#clip6_42_286)">
<path fill-rule="evenodd" clip-rule="evenodd" d="M1007.7 140.496V142.369H863.6V140.496H890.145V133.003H871.184V114.27H863.6V112.397H871.184V74.9311H911.001V93.6639H929.962V133.003H892.041V140.496H977.363V133.003H939.442V93.6639H958.403V74.9311H998.22V112.397H1005.8V28.0992H998.22V65.5647H958.403V46.832H939.442V7.49311H977.363V0H979.259V7.49311H998.22V26.2259H1005.8V0H1007.7V140.496ZM1005.8 140.496V114.27H998.22V133.003H979.259V140.496H1005.8ZM941.338 28.0992V44.9587H958.403V28.0992H941.338ZM960.299 44.9587H979.259V63.6915H996.324V28.0992H977.363V9.36639H941.338V26.2259H960.299V44.9587ZM960.299 46.832V63.6915H977.363V46.832H960.299ZM979.259 26.2259H996.324V9.36639H979.259V26.2259ZM928.066 112.397V95.5372H911.001V112.397H928.066ZM909.105 95.5372H890.145V76.8044H873.08V112.397H892.041V131.129H928.066V114.27H909.105V95.5372ZM909.105 93.6639V76.8044H892.041V93.6639H909.105ZM890.145 114.27H873.08V131.129H890.145V114.27ZM941.338 114.27V131.129H977.363V112.397H996.324V76.8044H979.259V95.5372H960.299V114.27H941.338ZM958.403 95.5372H941.338V112.397H958.403V95.5372ZM960.299 93.6639H977.363V76.8044H960.299V93.6639ZM979.259 131.129V114.27H996.324V131.129H979.259ZM892.041 0H890.145V7.49311H871.184V26.2259H863.6V28.0992H871.184V65.5647H911.001V46.832H929.962V7.49311H892.041V0ZM911.001 44.9587H928.066V28.0992H911.001V44.9587ZM928.066 26.2259H909.105V44.9587H890.145V63.6915H873.08V28.0992H892.041V9.36639H928.066V26.2259ZM892.041 46.832H909.105V63.6915H892.041V46.832ZM890.145 9.36639H873.08V26.2259H890.145V9.36639Z" fill="black"/>
</g>
<g opacity="0.05" clip-path="url(#clip7_42_286)">
<path fill-rule="evenodd" clip-rule="evenodd" d="M1151.8 140.496V142.369H1007.7V140.496H1034.24V133.003H1015.28V114.27H1007.7V112.397H1015.28V74.9311H1055.1V93.6639H1074.06V133.003H1036.14V140.496H1121.46V133.003H1083.54V93.6639H1102.5V74.9311H1142.32V112.397H1149.9V28.0992H1142.32V65.5647H1102.5V46.832H1083.54V7.49311H1121.46V0H1123.36V7.49311H1142.32V26.2259H1149.9V0H1151.8V140.496ZM1149.9 140.496V114.27H1142.32V133.003H1123.36V140.496H1149.9ZM1085.44 28.0992V44.9587H1102.5V28.0992H1085.44ZM1104.4 44.9587H1123.36V63.6915H1140.42V28.0992H1121.46V9.36639H1085.44V26.2259H1104.4V44.9587ZM1104.4 46.832V63.6915H1121.46V46.832H1104.4ZM1123.36 26.2259H1140.42V9.36639H1123.36V26.2259ZM1072.17 112.397V95.5372H1055.1V112.397H1072.17ZM1053.21 95.5372H1034.24V76.8044H1017.18V112.397H1036.14V131.129H1072.17V114.27H1053.21V95.5372ZM1053.21 93.6639V76.8044H1036.14V93.6639H1053.21ZM1034.24 114.27H1017.18V131.129H1034.24V114.27ZM1085.44 114.27V131.129H1121.46V112.397H1140.42V76.8044H1123.36V95.5372H1104.4V114.27H1085.44ZM1102.5 95.5372H1085.44V112.397H1102.5V95.5372ZM1104.4 93.6639H1121.46V76.8044H1104.4V93.6639ZM1123.36 131.129V114.27H1140.42V131.129H1123.36ZM1036.14 0H1034.24V7.49311H1015.28V26.2259H1007.7V28.0992H1015.28V65.5647H1055.1V46.832H1074.06V7.49311H1036.14V0ZM1055.1 44.9587H1072.17V28.0992H1055.1V44.9587ZM1072.17 26.2259H1053.21V44.9587H1034.24V63.6915H1017.18V28.0992H1036.14V9.36639H1072.17V26.2259ZM1036.14 46.832H1053.21V63.6915H1036.14V46.832ZM1034.24 9.36639H1017.18V26.2259H1034.24V9.36639Z" fill="black"/>
</g>
<g opacity="0.05" clip-path="url(#clip8_42_286)">
<path fill-rule="evenodd" clip-rule="evenodd" d="M1295.9 140.496V142.369H1151.8V140.496H1178.34V133.003H1159.38V114.27H1151.8V112.397H1159.38V74.9311H1199.2V93.6639H1218.16V133.003H1180.24V140.496H1265.56V133.003H1227.64V93.6639H1246.6V74.9311H1286.42V112.397H1294V28.0992H1286.42V65.5647H1246.6V46.832H1227.64V7.49311H1265.56V0H1267.46V7.49311H1286.42V26.2259H1294V0H1295.9V140.496ZM1294 140.496V114.27H1286.42V133.003H1267.46V140.496H1294ZM1229.54 28.0992V44.9587H1246.6V28.0992H1229.54ZM1248.5 44.9587H1267.46V63.6915H1284.52V28.0992H1265.56V9.36639H1229.54V26.2259H1248.5V44.9587ZM1248.5 46.832V63.6915H1265.56V46.832H1248.5ZM1267.46 26.2259H1284.52V9.36639H1267.46V26.2259ZM1216.27 112.397V95.5372H1199.2V112.397H1216.27ZM1197.31 95.5372H1178.34V76.8044H1161.28V112.397H1180.24V131.129H1216.27V114.27H1197.31V95.5372ZM1197.31 93.6639V76.8044H1180.24V93.6639H1197.31ZM1178.34 114.27H1161.28V131.129H1178.34V114.27ZM1229.54 114.27V131.129H1265.56V112.397H1284.52V76.8044H1267.46V95.5372H1248.5V114.27H1229.54ZM1246.6 95.5372H1229.54V112.397H1246.6V95.5372ZM1248.5 93.6639H1265.56V76.8044H1248.5V93.6639ZM1267.46 131.129V114.27H1284.52V131.129H1267.46ZM1180.24 0H1178.34V7.49311H1159.38V26.2259H1151.8V28.0992H1159.38V65.5647H1199.2V46.832H1218.16V7.49311H1180.24V0ZM1199.2 44.9587H1216.27V28.0992H1199.2V44.9587ZM1216.27 26.2259H1197.31V44.9587H1178.34V63.6915H1161.28V28.0992H1180.24V9.36639H1216.27V26.2259ZM1180.24 46.832H1197.31V63.6915H1180.24V46.832ZM1178.34 9.36639H1161.28V26.2259H1178.34V9.36639Z" fill="black"/>
</g>
<g opacity="0.05" clip-path="url(#clip9_42_286)">
<path fill-rule="evenodd" clip-rule="evenodd" d="M1440 140.496V142.369H1295.9V140.496H1322.44V133.003H1303.48V114.27H1295.9V112.397H1303.48V74.9311H1343.3V93.6639H1362.26V133.003H1324.34V140.496H1409.66V133.003H1371.74V93.6639H1390.7V74.9311H1430.52V112.397H1438.1V28.0992H1430.52V65.5647H1390.7V46.832H1371.74V7.49311H1409.66V0H1411.56V7.49311H1430.52V26.2259H1438.1V0H1440V140.496ZM1438.1 140.496V114.27H1430.52V133.003H1411.56V140.496H1438.1ZM1373.64 28.0992V44.9587H1390.7V28.0992H1373.64ZM1392.6 44.9587H1411.56V63.6915H1428.62V28.0992H1409.66V9.36639H1373.64V26.2259H1392.6V44.9587ZM1392.6 46.832V63.6915H1409.66V46.832H1392.6ZM1411.56 26.2259H1428.62V9.36639H1411.56V26.2259ZM1360.37 112.397V95.5372H1343.3V112.397H1360.37ZM1341.41 95.5372H1322.44V76.8044H1305.38V112.397H1324.34V131.129H1360.37V114.27H1341.41V95.5372ZM1341.41 93.6639V76.8044H1324.34V93.6639H1341.41ZM1322.44 114.27H1305.38V131.129H1322.44V114.27ZM1373.64 114.27V131.129H1409.66V112.397H1428.62V76.8044H1411.56V95.5372H1392.6V114.27H1373.64ZM1390.7 95.5372H1373.64V112.397H1390.7V95.5372ZM1392.6 93.6639H1409.66V76.8044H1392.6V93.6639ZM1411.56 131.129V114.27H1428.62V131.129H1411.56ZM1324.34 0H1322.44V7.49311H1303.48V26.2259H1295.9V28.0992H1303.48V65.5647H1343.3V46.832H1362.26V7.49311H1324.34V0ZM1343.3 44.9587H1360.37V28.0992H1343.3V44.9587ZM1360.37 26.2259H1341.41V44.9587H1322.44V63.6915H1305.38V28.0992H1324.34V9.36639H1360.37V26.2259ZM1324.34 46.832H1341.41V63.6915H1324.34V46.832ZM1322.44 9.36639H1305.38V26.2259H1322.44V9.36639Z" fill="black"/>
</g>
<g opacity="0.05" clip-path="url(#clip10_42_286)">
<path fill-rule="evenodd" clip-rule="evenodd" d="M143.1 282.496V284.369H-1V282.496H25.5447V275.003H6.58421V256.27H-1V254.397H6.58421V216.931H46.4013V235.664H65.3618V275.003H27.4408V282.496H112.763V275.003H74.8421V235.664H93.8026V216.931H133.62V254.397H141.204V170.099H133.62V207.565H93.8026V188.832H74.8421V149.493H112.763V142H114.659V149.493H133.62V168.226H141.204V142H143.1V282.496ZM141.204 282.496V256.27H133.62V275.003H114.659V282.496H141.204ZM76.7382 170.099V186.959H93.8026V170.099H76.7382ZM95.6987 186.959H114.659V205.691H131.724V170.099H112.763V151.366H76.7382V168.226H95.6987V186.959ZM95.6987 188.832V205.691H112.763V188.832H95.6987ZM114.659 168.226H131.724V151.366H114.659V168.226ZM63.4658 254.397V237.537H46.4013V254.397H63.4658ZM44.5053 237.537H25.5447V218.804H8.48026V254.397H27.4408V273.129H63.4658V256.27H44.5053V237.537ZM44.5053 235.664V218.804H27.4408V235.664H44.5053ZM25.5447 256.27H8.48026V273.129H25.5447V256.27ZM76.7382 256.27V273.129H112.763V254.397H131.724V218.804H114.659V237.537H95.6987V256.27H76.7382ZM93.8026 237.537H76.7382V254.397H93.8026V237.537ZM95.6987 235.664H112.763V218.804H95.6987V235.664ZM114.659 273.129V256.27H131.724V273.129H114.659ZM27.4408 142H25.5447V149.493H6.58421V168.226H-1V170.099H6.58421V207.565H46.4013V188.832H65.3618V149.493H27.4408V142ZM46.4013 186.959H63.4658V170.099H46.4013V186.959ZM63.4658 168.226H44.5053V186.959H25.5447V205.691H8.48026V170.099H27.4408V151.366H63.4658V168.226ZM27.4408 188.832H44.5053V205.691H27.4408V188.832ZM25.5447 151.366H8.48026V168.226H25.5447V151.366Z" fill="black"/>
</g>
<g opacity="0.05" clip-path="url(#clip11_42_286)">
<path fill-rule="evenodd" clip-rule="evenodd" d="M287.2 282.496V284.369H143.1V282.496H169.645V275.003H150.684V256.27H143.1V254.397H150.684V216.931H190.501V235.664H209.462V275.003H171.541V282.496H256.863V275.003H218.942V235.664H237.903V216.931H277.72V254.397H285.304V170.099H277.72V207.565H237.903V188.832H218.942V149.493H256.863V142H258.759V149.493H277.72V168.226H285.304V142H287.2V282.496ZM285.304 282.496V256.27H277.72V275.003H258.759V282.496H285.304ZM220.838 170.099V186.959H237.903V170.099H220.838ZM239.799 186.959H258.759V205.691H275.824V170.099H256.863V151.366H220.838V168.226H239.799V186.959ZM239.799 188.832V205.691H256.863V188.832H239.799ZM258.759 168.226H275.824V151.366H258.759V168.226ZM207.566 254.397V237.537H190.501V254.397H207.566ZM188.605 237.537H169.645V218.804H152.58V254.397H171.541V273.129H207.566V256.27H188.605V237.537ZM188.605 235.664V218.804H171.541V235.664H188.605ZM169.645 256.27H152.58V273.129H169.645V256.27ZM220.838 256.27V273.129H256.863V254.397H275.824V218.804H258.759V237.537H239.799V256.27H220.838ZM237.903 237.537H220.838V254.397H237.903V237.537ZM239.799 235.664H256.863V218.804H239.799V235.664ZM258.759 273.129V256.27H275.824V273.129H258.759ZM171.541 142H169.645V149.493H150.684V168.226H143.1V170.099H150.684V207.565H190.501V188.832H209.462V149.493H171.541V142ZM190.501 186.959H207.566V170.099H190.501V186.959ZM207.566 168.226H188.605V186.959H169.645V205.691H152.58V170.099H171.541V151.366H207.566V168.226ZM171.541 188.832H188.605V205.691H171.541V188.832ZM169.645 151.366H152.58V168.226H169.645V151.366Z" fill="black"/>
</g>
<g opacity="0.05" clip-path="url(#clip12_42_286)">
<path fill-rule="evenodd" clip-rule="evenodd" d="M431.3 282.496V284.369H287.2V282.496H313.745V275.003H294.784V256.27H287.2V254.397H294.784V216.931H334.601V235.664H353.562V275.003H315.641V282.496H400.963V275.003H363.042V235.664H382.003V216.931H421.82V254.397H429.404V170.099H421.82V207.565H382.003V188.832H363.042V149.493H400.963V142H402.859V149.493H421.82V168.226H429.404V142H431.3V282.496ZM429.404 282.496V256.27H421.82V275.003H402.859V282.496H429.404ZM364.938 170.099V186.959H382.003V170.099H364.938ZM383.899 186.959H402.859V205.691H419.924V170.099H400.963V151.366H364.938V168.226H383.899V186.959ZM383.899 188.832V205.691H400.963V188.832H383.899ZM402.859 168.226H419.924V151.366H402.859V168.226ZM351.666 254.397V237.537H334.601V254.397H351.666ZM332.705 237.537H313.745V218.804H296.68V254.397H315.641V273.129H351.666V256.27H332.705V237.537ZM332.705 235.664V218.804H315.641V235.664H332.705ZM313.745 256.27H296.68V273.129H313.745V256.27ZM364.938 256.27V273.129H400.963V254.397H419.924V218.804H402.859V237.537H383.899V256.27H364.938ZM382.003 237.537H364.938V254.397H382.003V237.537ZM383.899 235.664H400.963V218.804H383.899V235.664ZM402.859 273.129V256.27H419.924V273.129H402.859ZM315.641 142H313.745V149.493H294.784V168.226H287.2V170.099H294.784V207.565H334.601V188.832H353.562V149.493H315.641V142ZM334.601 186.959H351.666V170.099H334.601V186.959ZM351.666 168.226H332.705V186.959H313.745V205.691H296.68V170.099H315.641V151.366H351.666V168.226ZM315.641 188.832H332.705V205.691H315.641V188.832ZM313.745 151.366H296.68V168.226H313.745V151.366Z" fill="black"/>
</g>
<g opacity="0.05" clip-path="url(#clip13_42_286)">
<path fill-rule="evenodd" clip-rule="evenodd" d="M575.4 282.496V284.369H431.3V282.496H457.845V275.003H438.884V256.27H431.3V254.397H438.884V216.931H478.701V235.664H497.662V275.003H459.741V282.496H545.063V275.003H507.142V235.664H526.103V216.931H565.92V254.397H573.504V170.099H565.92V207.565H526.103V188.832H507.142V149.493H545.063V142H546.959V149.493H565.92V168.226H573.504V142H575.4V282.496ZM573.504 282.496V256.27H565.92V275.003H546.959V282.496H573.504ZM509.038 170.099V186.959H526.103V170.099H509.038ZM527.999 186.959H546.959V205.691H564.024V170.099H545.063V151.366H509.038V168.226H527.999V186.959ZM527.999 188.832V205.691H545.063V188.832H527.999ZM546.959 168.226H564.024V151.366H546.959V168.226ZM495.766 254.397V237.537H478.701V254.397H495.766ZM476.805 237.537H457.845V218.804H440.78V254.397H459.741V273.129H495.766V256.27H476.805V237.537ZM476.805 235.664V218.804H459.741V235.664H476.805ZM457.845 256.27H440.78V273.129H457.845V256.27ZM509.038 256.27V273.129H545.063V254.397H564.024V218.804H546.959V237.537H527.999V256.27H509.038ZM526.103 237.537H509.038V254.397H526.103V237.537ZM527.999 235.664H545.063V218.804H527.999V235.664ZM546.959 273.129V256.27H564.024V273.129H546.959ZM459.741 142H457.845V149.493H438.884V168.226H431.3V170.099H438.884V207.565H478.701V188.832H497.662V149.493H459.741V142ZM478.701 186.959H495.766V170.099H478.701V186.959ZM495.766 168.226H476.805V186.959H457.845V205.691H440.78V170.099H459.741V151.366H495.766V168.226ZM459.741 188.832H476.805V205.691H459.741V188.832ZM457.845 151.366H440.78V168.226H457.845V151.366Z" fill="black"/>
</g>
<g opacity="0.05" clip-path="url(#clip14_42_286)">
<path fill-rule="evenodd" clip-rule="evenodd" d="M719.5 282.496V284.369H575.4V282.496H601.945V275.003H582.984V256.27H575.4V254.397H582.984V216.931H622.801V235.664H641.762V275.003H603.841V282.496H689.163V275.003H651.242V235.664H670.203V216.931H710.02V254.397H717.604V170.099H710.02V207.565H670.203V188.832H651.242V149.493H689.163V142H691.059V149.493H710.02V168.226H717.604V142H719.5V282.496ZM717.604 282.496V256.27H710.02V275.003H691.059V282.496H717.604ZM653.138 170.099V186.959H670.203V170.099H653.138ZM672.099 186.959H691.059V205.691H708.124V170.099H689.163V151.366H653.138V168.226H672.099V186.959ZM672.099 188.832V205.691H689.163V188.832H672.099ZM691.059 168.226H708.124V151.366H691.059V168.226ZM639.866 254.397V237.537H622.801V254.397H639.866ZM620.905 237.537H601.945V218.804H584.88V254.397H603.841V273.129H639.866V256.27H620.905V237.537ZM620.905 235.664V218.804H603.841V235.664H620.905ZM601.945 256.27H584.88V273.129H601.945V256.27ZM653.138 256.27V273.129H689.163V254.397H708.124V218.804H691.059V237.537H672.099V256.27H653.138ZM670.203 237.537H653.138V254.397H670.203V237.537ZM672.099 235.664H689.163V218.804H672.099V235.664ZM691.059 273.129V256.27H708.124V273.129H691.059ZM603.841 142H601.945V149.493H582.984V168.226H575.4V170.099H582.984V207.565H622.801V188.832H641.762V149.493H603.841V142ZM622.801 186.959H639.866V170.099H622.801V186.959ZM639.866 168.226H620.905V186.959H601.945V205.691H584.88V170.099H603.841V151.366H639.866V168.226ZM603.841 188.832H620.905V205.691H603.841V188.832ZM601.945 151.366H584.88V168.226H601.945V151.366Z" fill="black"/>
</g>
<g opacity="0.05" clip-path="url(#clip15_42_286)">
<path fill-rule="evenodd" clip-rule="evenodd" d="M863.6 282.496V284.369H719.5V282.496H746.045V275.003H727.084V256.27H719.5V254.397H727.084V216.931H766.901V235.664H785.862V275.003H747.941V282.496H833.263V275.003H795.342V235.664H814.303V216.931H854.12V254.397H861.704V170.099H854.12V207.565H814.303V188.832H795.342V149.493H833.263V142H835.159V149.493H854.12V168.226H861.704V142H863.6V282.496ZM861.704 282.496V256.27H854.12V275.003H835.159V282.496H861.704ZM797.238 170.099V186.959H814.303V170.099H797.238ZM816.199 186.959H835.159V205.691H852.224V170.099H833.263V151.366H797.238V168.226H816.199V186.959ZM816.199 188.832V205.691H833.263V188.832H816.199ZM835.159 168.226H852.224V151.366H835.159V168.226ZM783.966 254.397V237.537H766.901V254.397H783.966ZM765.005 237.537H746.045V218.804H728.98V254.397H747.941V273.129H783.966V256.27H765.005V237.537ZM765.005 235.664V218.804H747.941V235.664H765.005ZM746.045 256.27H728.98V273.129H746.045V256.27ZM797.238 256.27V273.129H833.263V254.397H852.224V218.804H835.159V237.537H816.199V256.27H797.238ZM814.303 237.537H797.238V254.397H814.303V237.537ZM816.199 235.664H833.263V218.804H816.199V235.664ZM835.159 273.129V256.27H852.224V273.129H835.159ZM747.941 142H746.045V149.493H727.084V168.226H719.5V170.099H727.084V207.565H766.901V188.832H785.862V149.493H747.941V142ZM766.901 186.959H783.966V170.099H766.901V186.959ZM783.966 168.226H765.005V186.959H746.045V205.691H728.98V170.099H747.941V151.366H783.966V168.226ZM747.941 188.832H765.005V205.691H747.941V188.832ZM746.045 151.366H728.98V168.226H746.045V151.366Z" fill="black"/>
</g>
<g opacity="0.05" clip-path="url(#clip16_42_286)">
<path fill-rule="evenodd" clip-rule="evenodd" d="M1007.7 282.496V284.369H863.6V282.496H890.145V275.003H871.184V256.27H863.6V254.397H871.184V216.931H911.001V235.664H929.962V275.003H892.041V282.496H977.363V275.003H939.442V235.664H958.403V216.931H998.22V254.397H1005.8V170.099H998.22V207.565H958.403V188.832H939.442V149.493H977.363V142H979.259V149.493H998.22V168.226H1005.8V142H1007.7V282.496ZM1005.8 282.496V256.27H998.22V275.003H979.259V282.496H1005.8ZM941.338 170.099V186.959H958.403V170.099H941.338ZM960.299 186.959H979.259V205.691H996.324V170.099H977.363V151.366H941.338V168.226H960.299V186.959ZM960.299 188.832V205.691H977.363V188.832H960.299ZM979.259 168.226H996.324V151.366H979.259V168.226ZM928.066 254.397V237.537H911.001V254.397H928.066ZM909.105 237.537H890.145V218.804H873.08V254.397H892.041V273.129H928.066V256.27H909.105V237.537ZM909.105 235.664V218.804H892.041V235.664H909.105ZM890.145 256.27H873.08V273.129H890.145V256.27ZM941.338 256.27V273.129H977.363V254.397H996.324V218.804H979.259V237.537H960.299V256.27H941.338ZM958.403 237.537H941.338V254.397H958.403V237.537ZM960.299 235.664H977.363V218.804H960.299V235.664ZM979.259 273.129V256.27H996.324V273.129H979.259ZM892.041 142H890.145V149.493H871.184V168.226H863.6V170.099H871.184V207.565H911.001V188.832H929.962V149.493H892.041V142ZM911.001 186.959H928.066V170.099H911.001V186.959ZM928.066 168.226H909.105V186.959H890.145V205.691H873.08V170.099H892.041V151.366H928.066V168.226ZM892.041 188.832H909.105V205.691H892.041V188.832ZM890.145 151.366H873.08V168.226H890.145V151.366Z" fill="black"/>
</g>
<g opacity="0.05" clip-path="url(#clip17_42_286)">
<path fill-rule="evenodd" clip-rule="evenodd" d="M1151.8 282.496V284.369H1007.7V282.496H1034.24V275.003H1015.28V256.27H1007.7V254.397H1015.28V216.931H1055.1V235.664H1074.06V275.003H1036.14V282.496H1121.46V275.003H1083.54V235.664H1102.5V216.931H1142.32V254.397H1149.9V170.099H1142.32V207.565H1102.5V188.832H1083.54V149.493H1121.46V142H1123.36V149.493H1142.32V168.226H1149.9V142H1151.8V282.496ZM1149.9 282.496V256.27H1142.32V275.003H1123.36V282.496H1149.9ZM1085.44 170.099V186.959H1102.5V170.099H1085.44ZM1104.4 186.959H1123.36V205.691H1140.42V170.099H1121.46V151.366H1085.44V168.226H1104.4V186.959ZM1104.4 188.832V205.691H1121.46V188.832H1104.4ZM1123.36 168.226H1140.42V151.366H1123.36V168.226ZM1072.17 254.397V237.537H1055.1V254.397H1072.17ZM1053.21 237.537H1034.24V218.804H1017.18V254.397H1036.14V273.129H1072.17V256.27H1053.21V237.537ZM1053.21 235.664V218.804H1036.14V235.664H1053.21ZM1034.24 256.27H1017.18V273.129H1034.24V256.27ZM1085.44 256.27V273.129H1121.46V254.397H1140.42V218.804H1123.36V237.537H1104.4V256.27H1085.44ZM1102.5 237.537H1085.44V254.397H1102.5V237.537ZM1104.4 235.664H1121.46V218.804H1104.4V235.664ZM1123.36 273.129V256.27H1140.42V273.129H1123.36ZM1036.14 142H1034.24V149.493H1015.28V168.226H1007.7V170.099H1015.28V207.565H1055.1V188.832H1074.06V149.493H1036.14V142ZM1055.1 186.959H1072.17V170.099H1055.1V186.959ZM1072.17 168.226H1053.21V186.959H1034.24V205.691H1017.18V170.099H1036.14V151.366H1072.17V168.226ZM1036.14 188.832H1053.21V205.691H1036.14V188.832ZM1034.24 151.366H1017.18V168.226H1034.24V151.366Z" fill="black"/>
</g>
<g opacity="0.05" clip-path="url(#clip18_42_286)">
<path fill-rule="evenodd" clip-rule="evenodd" d="M1295.9 282.496V284.369H1151.8V282.496H1178.34V275.003H1159.38V256.27H1151.8V254.397H1159.38V216.931H1199.2V235.664H1218.16V275.003H1180.24V282.496H1265.56V275.003H1227.64V235.664H1246.6V216.931H1286.42V254.397H1294V170.099H1286.42V207.565H1246.6V188.832H1227.64V149.493H1265.56V142H1267.46V149.493H1286.42V168.226H1294V142H1295.9V282.496ZM1294 282.496V256.27H1286.42V275.003H1267.46V282.496H1294ZM1229.54 170.099V186.959H1246.6V170.099H1229.54ZM1248.5 186.959H1267.46V205.691H1284.52V170.099H1265.56V151.366H1229.54V168.226H1248.5V186.959ZM1248.5 188.832V205.691H1265.56V188.832H1248.5ZM1267.46 168.226H1284.52V151.366H1267.46V168.226ZM1216.27 254.397V237.537H1199.2V254.397H1216.27ZM1197.31 237.537H1178.34V218.804H1161.28V254.397H1180.24V273.129H1216.27V256.27H1197.31V237.537ZM1197.31 235.664V218.804H1180.24V235.664H1197.31ZM1178.34 256.27H1161.28V273.129H1178.34V256.27ZM1229.54 256.27V273.129H1265.56V254.397H1284.52V218.804H1267.46V237.537H1248.5V256.27H1229.54ZM1246.6 237.537H1229.54V254.397H1246.6V237.537ZM1248.5 235.664H1265.56V218.804H1248.5V235.664ZM1267.46 273.129V256.27H1284.52V273.129H1267.46ZM1180.24 142H1178.34V149.493H1159.38V168.226H1151.8V170.099H1159.38V207.565H1199.2V188.832H1218.16V149.493H1180.24V142ZM1199.2 186.959H1216.27V170.099H1199.2V186.959ZM1216.27 168.226H1197.31V186.959H1178.34V205.691H1161.28V170.099H1180.24V151.366H1216.27V168.226ZM1180.24 188.832H1197.31V205.691H1180.24V188.832ZM1178.34 151.366H1161.28V168.226H1178.34V151.366Z" fill="black"/>
</g>
<g opacity="0.05" clip-path="url(#clip19_42_286)">
<path fill-rule="evenodd" clip-rule="evenodd" d="M1440 282.496V284.369H1295.9V282.496H1322.44V275.003H1303.48V256.27H1295.9V254.397H1303.48V216.931H1343.3V235.664H1362.26V275.003H1324.34V282.496H1409.66V275.003H1371.74V235.664H1390.7V216.931H1430.52V254.397H1438.1V170.099H1430.52V207.565H1390.7V188.832H1371.74V149.493H1409.66V142H1411.56V149.493H1430.52V168.226H1438.1V142H1440V282.496ZM1438.1 282.496V256.27H1430.52V275.003H1411.56V282.496H1438.1ZM1373.64 170.099V186.959H1390.7V170.099H1373.64ZM1392.6 186.959H1411.56V205.691H1428.62V170.099H1409.66V151.366H1373.64V168.226H1392.6V186.959ZM1392.6 188.832V205.691H1409.66V188.832H1392.6ZM1411.56 168.226H1428.62V151.366H1411.56V168.226ZM1360.37 254.397V237.537H1343.3V254.397H1360.37ZM1341.41 237.537H1322.44V218.804H1305.38V254.397H1324.34V273.129H1360.37V256.27H1341.41V237.537ZM1341.41 235.664V218.804H1324.34V235.664H1341.41ZM1322.44 256.27H1305.38V273.129H1322.44V256.27ZM1373.64 256.27V273.129H1409.66V254.397H1428.62V218.804H1411.56V237.537H1392.6V256.27H1373.64ZM1390.7 237.537H1373.64V254.397H1390.7V237.537ZM1392.6 235.664H1409.66V218.804H1392.6V235.664ZM1411.56 273.129V256.27H1428.62V273.129H1411.56ZM1324.34 142H1322.44V149.493H1303.48V168.226H1295.9V170.099H1303.48V207.565H1343.3V188.832H1362.26V149.493H1324.34V142ZM1343.3 186.959H1360.37V170.099H1343.3V186.959ZM1360.37 168.226H1341.41V186.959H1322.44V205.691H1305.38V170.099H1324.34V151.366H1360.37V168.226ZM1324.34 188.832H1341.41V205.691H1324.34V188.832ZM1322.44 151.366H1305.38V168.226H1322.44V151.366Z" fill="black"/>
</g>
<defs>
<clipPath id="clip0_42_286">
<rect width="144.1" height="142.369" fill="white" transform="translate(-1)"/>
</clipPath>
<clipPath id="clip1_42_286">
<rect width="144.1" height="142.369" fill="white" transform="translate(143.1)"/>
</clipPath>
<clipPath id="clip2_42_286">
<rect width="144.1" height="142.369" fill="white" transform="translate(287.2)"/>
</clipPath>
<clipPath id="clip3_42_286">
<rect width="144.1" height="142.369" fill="white" transform="translate(431.3)"/>
</clipPath>
<clipPath id="clip4_42_286">
<rect width="144.1" height="142.369" fill="white" transform="translate(575.4)"/>
</clipPath>
<clipPath id="clip5_42_286">
<rect width="144.1" height="142.369" fill="white" transform="translate(719.5)"/>
</clipPath>
<clipPath id="clip6_42_286">
<rect width="144.1" height="142.369" fill="white" transform="translate(863.6)"/>
</clipPath>
<clipPath id="clip7_42_286">
<rect width="144.1" height="142.369" fill="white" transform="translate(1007.7)"/>
</clipPath>
<clipPath id="clip8_42_286">
<rect width="144.1" height="142.369" fill="white" transform="translate(1151.8)"/>
</clipPath>
<clipPath id="clip9_42_286">
<rect width="144.1" height="142.369" fill="white" transform="translate(1295.9)"/>
</clipPath>
<clipPath id="clip10_42_286">
<rect width="144.1" height="142.369" fill="white" transform="translate(-1 142)"/>
</clipPath>
<clipPath id="clip11_42_286">
<rect width="144.1" height="142.369" fill="white" transform="translate(143.1 142)"/>
</clipPath>
<clipPath id="clip12_42_286">
<rect width="144.1" height="142.369" fill="white" transform="translate(287.2 142)"/>
</clipPath>
<clipPath id="clip13_42_286">
<rect width="144.1" height="142.369" fill="white" transform="translate(431.3 142)"/>
</clipPath>
<clipPath id="clip14_42_286">
<rect width="144.1" height="142.369" fill="white" transform="translate(575.4 142)"/>
</clipPath>
<clipPath id="clip15_42_286">
<rect width="144.1" height="142.369" fill="white" transform="translate(719.5 142)"/>
</clipPath>
<clipPath id="clip16_42_286">
<rect width="144.1" height="142.369" fill="white" transform="translate(863.6 142)"/>
</clipPath>
<clipPath id="clip17_42_286">
<rect width="144.1" height="142.369" fill="white" transform="translate(1007.7 142)"/>
</clipPath>
<clipPath id="clip18_42_286">
<rect width="144.1" height="142.369" fill="white" transform="translate(1151.8 142)"/>
</clipPath>
<clipPath id="clip19_42_286">
<rect width="144.1" height="142.369" fill="white" transform="translate(1295.9 142)"/>
</clipPath>
</defs>
</svg>
