<svg width="1440" height="427" viewBox="0 0 1440 427" fill="none" xmlns="http://www.w3.org/2000/svg">
<g opacity="0.05" clip-path="url(#clip0_27_194)">
<path fill-rule="evenodd" clip-rule="evenodd" d="M143.1 141.372V143.245H-1V141.372H25.5447V133.879H6.58421V115.146H-1V113.273H6.58421V75.8072H46.4013V94.5399H65.3618V133.879H27.4408V141.372H112.763V133.879H74.8421V94.5399H93.8026V75.8072H133.62V113.273H141.204V28.9752H133.62V66.4408H93.8026V47.708H74.8421V8.36915H112.763V0.876038H114.659V8.36915H133.62V27.1019H141.204V0.876038H143.1V141.372ZM141.204 141.372V115.146H133.62V133.879H114.659V141.372H141.204ZM76.7382 28.9752V45.8347H93.8026V28.9752H76.7382ZM95.6987 45.8347H114.659V64.5675H131.724V28.9752H112.763V10.2424H76.7382V27.1019H95.6987V45.8347ZM95.6987 47.708V64.5675H112.763V47.708H95.6987ZM114.659 27.1019H131.724V10.2424H114.659V27.1019ZM63.4658 113.273V96.4132H46.4013V113.273H63.4658ZM44.5053 96.4132H25.5447V77.6804H8.48026V113.273H27.4408V132.006H63.4658V115.146H44.5053V96.4132ZM44.5053 94.5399V77.6804H27.4408V94.5399H44.5053ZM25.5447 115.146H8.48026V132.006H25.5447V115.146ZM76.7382 115.146V132.006H112.763V113.273H131.724V77.6804H114.659V96.4132H95.6987V115.146H76.7382ZM93.8026 96.4132H76.7382V113.273H93.8026V96.4132ZM95.6987 94.5399H112.763V77.6804H95.6987V94.5399ZM114.659 132.006V115.146H131.724V132.006H114.659ZM27.4408 0.876038H25.5447V8.36915H6.58421V27.1019H-1V28.9752H6.58421V66.4408H46.4013V47.708H65.3618V8.36915H27.4408V0.876038ZM46.4013 45.8347H63.4658V28.9752H46.4013V45.8347ZM63.4658 27.1019H44.5053V45.8347H25.5447V64.5675H8.48026V28.9752H27.4408V10.2424H63.4658V27.1019ZM27.4408 47.708H44.5053V64.5675H27.4408V47.708ZM25.5447 10.2424H8.48026V27.1019H25.5447V10.2424Z" fill="black"/>
</g>
<g opacity="0.05" clip-path="url(#clip1_27_194)">
<path fill-rule="evenodd" clip-rule="evenodd" d="M287.2 141.372V143.245H143.1V141.372H169.645V133.879H150.684V115.146H143.1V113.273H150.684V75.8072H190.501V94.5399H209.462V133.879H171.541V141.372H256.863V133.879H218.942V94.5399H237.903V75.8072H277.72V113.273H285.304V28.9752H277.72V66.4408H237.903V47.708H218.942V8.36915H256.863V0.876038H258.759V8.36915H277.72V27.1019H285.304V0.876038H287.2V141.372ZM285.304 141.372V115.146H277.72V133.879H258.759V141.372H285.304ZM220.838 28.9752V45.8347H237.903V28.9752H220.838ZM239.799 45.8347H258.759V64.5675H275.824V28.9752H256.863V10.2424H220.838V27.1019H239.799V45.8347ZM239.799 47.708V64.5675H256.863V47.708H239.799ZM258.759 27.1019H275.824V10.2424H258.759V27.1019ZM207.566 113.273V96.4132H190.501V113.273H207.566ZM188.605 96.4132H169.645V77.6804H152.58V113.273H171.541V132.006H207.566V115.146H188.605V96.4132ZM188.605 94.5399V77.6804H171.541V94.5399H188.605ZM169.645 115.146H152.58V132.006H169.645V115.146ZM220.838 115.146V132.006H256.863V113.273H275.824V77.6804H258.759V96.4132H239.799V115.146H220.838ZM237.903 96.4132H220.838V113.273H237.903V96.4132ZM239.799 94.5399H256.863V77.6804H239.799V94.5399ZM258.759 132.006V115.146H275.824V132.006H258.759ZM171.541 0.876038H169.645V8.36915H150.684V27.1019H143.1V28.9752H150.684V66.4408H190.501V47.708H209.462V8.36915H171.541V0.876038ZM190.501 45.8347H207.566V28.9752H190.501V45.8347ZM207.566 27.1019H188.605V45.8347H169.645V64.5675H152.58V28.9752H171.541V10.2424H207.566V27.1019ZM171.541 47.708H188.605V64.5675H171.541V47.708ZM169.645 10.2424H152.58V27.1019H169.645V10.2424Z" fill="black"/>
</g>
<g opacity="0.05" clip-path="url(#clip2_27_194)">
<path fill-rule="evenodd" clip-rule="evenodd" d="M431.3 141.372V143.245H287.2V141.372H313.745V133.879H294.784V115.146H287.2V113.273H294.784V75.8072H334.601V94.5399H353.562V133.879H315.641V141.372H400.963V133.879H363.042V94.5399H382.003V75.8072H421.82V113.273H429.404V28.9752H421.82V66.4408H382.003V47.708H363.042V8.36915H400.963V0.876038H402.859V8.36915H421.82V27.1019H429.404V0.876038H431.3V141.372ZM429.404 141.372V115.146H421.82V133.879H402.859V141.372H429.404ZM364.938 28.9752V45.8347H382.003V28.9752H364.938ZM383.899 45.8347H402.859V64.5675H419.924V28.9752H400.963V10.2424H364.938V27.1019H383.899V45.8347ZM383.899 47.708V64.5675H400.963V47.708H383.899ZM402.859 27.1019H419.924V10.2424H402.859V27.1019ZM351.666 113.273V96.4132H334.601V113.273H351.666ZM332.705 96.4132H313.745V77.6804H296.68V113.273H315.641V132.006H351.666V115.146H332.705V96.4132ZM332.705 94.5399V77.6804H315.641V94.5399H332.705ZM313.745 115.146H296.68V132.006H313.745V115.146ZM364.938 115.146V132.006H400.963V113.273H419.924V77.6804H402.859V96.4132H383.899V115.146H364.938ZM382.003 96.4132H364.938V113.273H382.003V96.4132ZM383.899 94.5399H400.963V77.6804H383.899V94.5399ZM402.859 132.006V115.146H419.924V132.006H402.859ZM315.641 0.876038H313.745V8.36915H294.784V27.1019H287.2V28.9752H294.784V66.4408H334.601V47.708H353.562V8.36915H315.641V0.876038ZM334.601 45.8347H351.666V28.9752H334.601V45.8347ZM351.666 27.1019H332.705V45.8347H313.745V64.5675H296.68V28.9752H315.641V10.2424H351.666V27.1019ZM315.641 47.708H332.705V64.5675H315.641V47.708ZM313.745 10.2424H296.68V27.1019H313.745V10.2424Z" fill="black"/>
</g>
<g opacity="0.05" clip-path="url(#clip3_27_194)">
<path fill-rule="evenodd" clip-rule="evenodd" d="M575.4 141.372V143.245H431.3V141.372H457.845V133.879H438.884V115.146H431.3V113.273H438.884V75.8072H478.701V94.5399H497.662V133.879H459.741V141.372H545.063V133.879H507.142V94.5399H526.103V75.8072H565.92V113.273H573.504V28.9752H565.92V66.4408H526.103V47.708H507.142V8.36915H545.063V0.876038H546.959V8.36915H565.92V27.1019H573.504V0.876038H575.4V141.372ZM573.504 141.372V115.146H565.92V133.879H546.959V141.372H573.504ZM509.038 28.9752V45.8347H526.103V28.9752H509.038ZM527.999 45.8347H546.959V64.5675H564.024V28.9752H545.063V10.2424H509.038V27.1019H527.999V45.8347ZM527.999 47.708V64.5675H545.063V47.708H527.999ZM546.959 27.1019H564.024V10.2424H546.959V27.1019ZM495.766 113.273V96.4132H478.701V113.273H495.766ZM476.805 96.4132H457.845V77.6804H440.78V113.273H459.741V132.006H495.766V115.146H476.805V96.4132ZM476.805 94.5399V77.6804H459.741V94.5399H476.805ZM457.845 115.146H440.78V132.006H457.845V115.146ZM509.038 115.146V132.006H545.063V113.273H564.024V77.6804H546.959V96.4132H527.999V115.146H509.038ZM526.103 96.4132H509.038V113.273H526.103V96.4132ZM527.999 94.5399H545.063V77.6804H527.999V94.5399ZM546.959 132.006V115.146H564.024V132.006H546.959ZM459.741 0.876038H457.845V8.36915H438.884V27.1019H431.3V28.9752H438.884V66.4408H478.701V47.708H497.662V8.36915H459.741V0.876038ZM478.701 45.8347H495.766V28.9752H478.701V45.8347ZM495.766 27.1019H476.805V45.8347H457.845V64.5675H440.78V28.9752H459.741V10.2424H495.766V27.1019ZM459.741 47.708H476.805V64.5675H459.741V47.708ZM457.845 10.2424H440.78V27.1019H457.845V10.2424Z" fill="black"/>
</g>
<g opacity="0.05" clip-path="url(#clip4_27_194)">
<path fill-rule="evenodd" clip-rule="evenodd" d="M719.5 141.372V143.245H575.4V141.372H601.945V133.879H582.984V115.146H575.4V113.273H582.984V75.8072H622.801V94.5399H641.762V133.879H603.841V141.372H689.163V133.879H651.242V94.5399H670.203V75.8072H710.02V113.273H717.604V28.9752H710.02V66.4408H670.203V47.708H651.242V8.36915H689.163V0.876038H691.059V8.36915H710.02V27.1019H717.604V0.876038H719.5V141.372ZM717.604 141.372V115.146H710.02V133.879H691.059V141.372H717.604ZM653.138 28.9752V45.8347H670.203V28.9752H653.138ZM672.099 45.8347H691.059V64.5675H708.124V28.9752H689.163V10.2424H653.138V27.1019H672.099V45.8347ZM672.099 47.708V64.5675H689.163V47.708H672.099ZM691.059 27.1019H708.124V10.2424H691.059V27.1019ZM639.866 113.273V96.4132H622.801V113.273H639.866ZM620.905 96.4132H601.945V77.6804H584.88V113.273H603.841V132.006H639.866V115.146H620.905V96.4132ZM620.905 94.5399V77.6804H603.841V94.5399H620.905ZM601.945 115.146H584.88V132.006H601.945V115.146ZM653.138 115.146V132.006H689.163V113.273H708.124V77.6804H691.059V96.4132H672.099V115.146H653.138ZM670.203 96.4132H653.138V113.273H670.203V96.4132ZM672.099 94.5399H689.163V77.6804H672.099V94.5399ZM691.059 132.006V115.146H708.124V132.006H691.059ZM603.841 0.876038H601.945V8.36915H582.984V27.1019H575.4V28.9752H582.984V66.4408H622.801V47.708H641.762V8.36915H603.841V0.876038ZM622.801 45.8347H639.866V28.9752H622.801V45.8347ZM639.866 27.1019H620.905V45.8347H601.945V64.5675H584.88V28.9752H603.841V10.2424H639.866V27.1019ZM603.841 47.708H620.905V64.5675H603.841V47.708ZM601.945 10.2424H584.88V27.1019H601.945V10.2424Z" fill="black"/>
</g>
<g opacity="0.05" clip-path="url(#clip5_27_194)">
<path fill-rule="evenodd" clip-rule="evenodd" d="M863.6 141.372V143.245H719.5V141.372H746.045V133.879H727.084V115.146H719.5V113.273H727.084V75.8072H766.901V94.5399H785.862V133.879H747.941V141.372H833.263V133.879H795.342V94.5399H814.303V75.8072H854.12V113.273H861.704V28.9752H854.12V66.4408H814.303V47.708H795.342V8.36915H833.263V0.876038H835.159V8.36915H854.12V27.1019H861.704V0.876038H863.6V141.372ZM861.704 141.372V115.146H854.12V133.879H835.159V141.372H861.704ZM797.238 28.9752V45.8347H814.303V28.9752H797.238ZM816.199 45.8347H835.159V64.5675H852.224V28.9752H833.263V10.2424H797.238V27.1019H816.199V45.8347ZM816.199 47.708V64.5675H833.263V47.708H816.199ZM835.159 27.1019H852.224V10.2424H835.159V27.1019ZM783.966 113.273V96.4132H766.901V113.273H783.966ZM765.005 96.4132H746.045V77.6804H728.98V113.273H747.941V132.006H783.966V115.146H765.005V96.4132ZM765.005 94.5399V77.6804H747.941V94.5399H765.005ZM746.045 115.146H728.98V132.006H746.045V115.146ZM797.238 115.146V132.006H833.263V113.273H852.224V77.6804H835.159V96.4132H816.199V115.146H797.238ZM814.303 96.4132H797.238V113.273H814.303V96.4132ZM816.199 94.5399H833.263V77.6804H816.199V94.5399ZM835.159 132.006V115.146H852.224V132.006H835.159ZM747.941 0.876038H746.045V8.36915H727.084V27.1019H719.5V28.9752H727.084V66.4408H766.901V47.708H785.862V8.36915H747.941V0.876038ZM766.901 45.8347H783.966V28.9752H766.901V45.8347ZM783.966 27.1019H765.005V45.8347H746.045V64.5675H728.98V28.9752H747.941V10.2424H783.966V27.1019ZM747.941 47.708H765.005V64.5675H747.941V47.708ZM746.045 10.2424H728.98V27.1019H746.045V10.2424Z" fill="black"/>
</g>
<g opacity="0.05" clip-path="url(#clip6_27_194)">
<path fill-rule="evenodd" clip-rule="evenodd" d="M1007.7 141.372V143.245H863.6V141.372H890.145V133.879H871.184V115.146H863.6V113.273H871.184V75.8072H911.001V94.5399H929.962V133.879H892.041V141.372H977.363V133.879H939.442V94.5399H958.403V75.8072H998.22V113.273H1005.8V28.9752H998.22V66.4408H958.403V47.708H939.442V8.36915H977.363V0.876038H979.259V8.36915H998.22V27.1019H1005.8V0.876038H1007.7V141.372ZM1005.8 141.372V115.146H998.22V133.879H979.259V141.372H1005.8ZM941.338 28.9752V45.8347H958.403V28.9752H941.338ZM960.299 45.8347H979.259V64.5675H996.324V28.9752H977.363V10.2424H941.338V27.1019H960.299V45.8347ZM960.299 47.708V64.5675H977.363V47.708H960.299ZM979.259 27.1019H996.324V10.2424H979.259V27.1019ZM928.066 113.273V96.4132H911.001V113.273H928.066ZM909.105 96.4132H890.145V77.6804H873.08V113.273H892.041V132.006H928.066V115.146H909.105V96.4132ZM909.105 94.5399V77.6804H892.041V94.5399H909.105ZM890.145 115.146H873.08V132.006H890.145V115.146ZM941.338 115.146V132.006H977.363V113.273H996.324V77.6804H979.259V96.4132H960.299V115.146H941.338ZM958.403 96.4132H941.338V113.273H958.403V96.4132ZM960.299 94.5399H977.363V77.6804H960.299V94.5399ZM979.259 132.006V115.146H996.324V132.006H979.259ZM892.041 0.876038H890.145V8.36915H871.184V27.1019H863.6V28.9752H871.184V66.4408H911.001V47.708H929.962V8.36915H892.041V0.876038ZM911.001 45.8347H928.066V28.9752H911.001V45.8347ZM928.066 27.1019H909.105V45.8347H890.145V64.5675H873.08V28.9752H892.041V10.2424H928.066V27.1019ZM892.041 47.708H909.105V64.5675H892.041V47.708ZM890.145 10.2424H873.08V27.1019H890.145V10.2424Z" fill="black"/>
</g>
<g opacity="0.05" clip-path="url(#clip7_27_194)">
<path fill-rule="evenodd" clip-rule="evenodd" d="M1151.8 141.372V143.245H1007.7V141.372H1034.24V133.879H1015.28V115.146H1007.7V113.273H1015.28V75.8072H1055.1V94.5399H1074.06V133.879H1036.14V141.372H1121.46V133.879H1083.54V94.5399H1102.5V75.8072H1142.32V113.273H1149.9V28.9752H1142.32V66.4408H1102.5V47.708H1083.54V8.36915H1121.46V0.876038H1123.36V8.36915H1142.32V27.1019H1149.9V0.876038H1151.8V141.372ZM1149.9 141.372V115.146H1142.32V133.879H1123.36V141.372H1149.9ZM1085.44 28.9752V45.8347H1102.5V28.9752H1085.44ZM1104.4 45.8347H1123.36V64.5675H1140.42V28.9752H1121.46V10.2424H1085.44V27.1019H1104.4V45.8347ZM1104.4 47.708V64.5675H1121.46V47.708H1104.4ZM1123.36 27.1019H1140.42V10.2424H1123.36V27.1019ZM1072.17 113.273V96.4132H1055.1V113.273H1072.17ZM1053.21 96.4132H1034.24V77.6804H1017.18V113.273H1036.14V132.006H1072.17V115.146H1053.21V96.4132ZM1053.21 94.5399V77.6804H1036.14V94.5399H1053.21ZM1034.24 115.146H1017.18V132.006H1034.24V115.146ZM1085.44 115.146V132.006H1121.46V113.273H1140.42V77.6804H1123.36V96.4132H1104.4V115.146H1085.44ZM1102.5 96.4132H1085.44V113.273H1102.5V96.4132ZM1104.4 94.5399H1121.46V77.6804H1104.4V94.5399ZM1123.36 132.006V115.146H1140.42V132.006H1123.36ZM1036.14 0.876038H1034.24V8.36915H1015.28V27.1019H1007.7V28.9752H1015.28V66.4408H1055.1V47.708H1074.06V8.36915H1036.14V0.876038ZM1055.1 45.8347H1072.17V28.9752H1055.1V45.8347ZM1072.17 27.1019H1053.21V45.8347H1034.24V64.5675H1017.18V28.9752H1036.14V10.2424H1072.17V27.1019ZM1036.14 47.708H1053.21V64.5675H1036.14V47.708ZM1034.24 10.2424H1017.18V27.1019H1034.24V10.2424Z" fill="black"/>
</g>
<g opacity="0.05" clip-path="url(#clip8_27_194)">
<path fill-rule="evenodd" clip-rule="evenodd" d="M1295.9 141.372V143.245H1151.8V141.372H1178.34V133.879H1159.38V115.146H1151.8V113.273H1159.38V75.8072H1199.2V94.5399H1218.16V133.879H1180.24V141.372H1265.56V133.879H1227.64V94.5399H1246.6V75.8072H1286.42V113.273H1294V28.9752H1286.42V66.4408H1246.6V47.708H1227.64V8.36915H1265.56V0.876038H1267.46V8.36915H1286.42V27.1019H1294V0.876038H1295.9V141.372ZM1294 141.372V115.146H1286.42V133.879H1267.46V141.372H1294ZM1229.54 28.9752V45.8347H1246.6V28.9752H1229.54ZM1248.5 45.8347H1267.46V64.5675H1284.52V28.9752H1265.56V10.2424H1229.54V27.1019H1248.5V45.8347ZM1248.5 47.708V64.5675H1265.56V47.708H1248.5ZM1267.46 27.1019H1284.52V10.2424H1267.46V27.1019ZM1216.27 113.273V96.4132H1199.2V113.273H1216.27ZM1197.31 96.4132H1178.34V77.6804H1161.28V113.273H1180.24V132.006H1216.27V115.146H1197.31V96.4132ZM1197.31 94.5399V77.6804H1180.24V94.5399H1197.31ZM1178.34 115.146H1161.28V132.006H1178.34V115.146ZM1229.54 115.146V132.006H1265.56V113.273H1284.52V77.6804H1267.46V96.4132H1248.5V115.146H1229.54ZM1246.6 96.4132H1229.54V113.273H1246.6V96.4132ZM1248.5 94.5399H1265.56V77.6804H1248.5V94.5399ZM1267.46 132.006V115.146H1284.52V132.006H1267.46ZM1180.24 0.876038H1178.34V8.36915H1159.38V27.1019H1151.8V28.9752H1159.38V66.4408H1199.2V47.708H1218.16V8.36915H1180.24V0.876038ZM1199.2 45.8347H1216.27V28.9752H1199.2V45.8347ZM1216.27 27.1019H1197.31V45.8347H1178.34V64.5675H1161.28V28.9752H1180.24V10.2424H1216.27V27.1019ZM1180.24 47.708H1197.31V64.5675H1180.24V47.708ZM1178.34 10.2424H1161.28V27.1019H1178.34V10.2424Z" fill="black"/>
</g>
<g opacity="0.05" clip-path="url(#clip9_27_194)">
<path fill-rule="evenodd" clip-rule="evenodd" d="M1440 141.372V143.245H1295.9V141.372H1322.44V133.879H1303.48V115.146H1295.9V113.273H1303.48V75.8072H1343.3V94.5399H1362.26V133.879H1324.34V141.372H1409.66V133.879H1371.74V94.5399H1390.7V75.8072H1430.52V113.273H1438.1V28.9752H1430.52V66.4408H1390.7V47.708H1371.74V8.36915H1409.66V0.876038H1411.56V8.36915H1430.52V27.1019H1438.1V0.876038H1440V141.372ZM1438.1 141.372V115.146H1430.52V133.879H1411.56V141.372H1438.1ZM1373.64 28.9752V45.8347H1390.7V28.9752H1373.64ZM1392.6 45.8347H1411.56V64.5675H1428.62V28.9752H1409.66V10.2424H1373.64V27.1019H1392.6V45.8347ZM1392.6 47.708V64.5675H1409.66V47.708H1392.6ZM1411.56 27.1019H1428.62V10.2424H1411.56V27.1019ZM1360.37 113.273V96.4132H1343.3V113.273H1360.37ZM1341.41 96.4132H1322.44V77.6804H1305.38V113.273H1324.34V132.006H1360.37V115.146H1341.41V96.4132ZM1341.41 94.5399V77.6804H1324.34V94.5399H1341.41ZM1322.44 115.146H1305.38V132.006H1322.44V115.146ZM1373.64 115.146V132.006H1409.66V113.273H1428.62V77.6804H1411.56V96.4132H1392.6V115.146H1373.64ZM1390.7 96.4132H1373.64V113.273H1390.7V96.4132ZM1392.6 94.5399H1409.66V77.6804H1392.6V94.5399ZM1411.56 132.006V115.146H1428.62V132.006H1411.56ZM1324.34 0.876038H1322.44V8.36915H1303.48V27.1019H1295.9V28.9752H1303.48V66.4408H1343.3V47.708H1362.26V8.36915H1324.34V0.876038ZM1343.3 45.8347H1360.37V28.9752H1343.3V45.8347ZM1360.37 27.1019H1341.41V45.8347H1322.44V64.5675H1305.38V28.9752H1324.34V10.2424H1360.37V27.1019ZM1324.34 47.708H1341.41V64.5675H1324.34V47.708ZM1322.44 10.2424H1305.38V27.1019H1322.44V10.2424Z" fill="black"/>
</g>
<g opacity="0.05" clip-path="url(#clip10_27_194)">
<path fill-rule="evenodd" clip-rule="evenodd" d="M143.1 281.868V283.741H-1V281.868H25.5447V274.375H6.58421V255.642H-1V253.769H6.58421V216.303H46.4013V235.036H65.3618V274.375H27.4408V281.868H112.763V274.375H74.8421V235.036H93.8026V216.303H133.62V253.769H141.204V169.471H133.62V206.937H93.8026V188.204H74.8421V148.865H112.763V141.372H114.659V148.865H133.62V167.598H141.204V141.372H143.1V281.868ZM141.204 281.868V255.642H133.62V274.375H114.659V281.868H141.204ZM76.7382 169.471V186.331H93.8026V169.471H76.7382ZM95.6987 186.331H114.659V205.063H131.724V169.471H112.763V150.738H76.7382V167.598H95.6987V186.331ZM95.6987 188.204V205.063H112.763V188.204H95.6987ZM114.659 167.598H131.724V150.738H114.659V167.598ZM63.4658 253.769V236.909H46.4013V253.769H63.4658ZM44.5053 236.909H25.5447V218.176H8.48026V253.769H27.4408V272.501H63.4658V255.642H44.5053V236.909ZM44.5053 235.036V218.176H27.4408V235.036H44.5053ZM25.5447 255.642H8.48026V272.501H25.5447V255.642ZM76.7382 255.642V272.501H112.763V253.769H131.724V218.176H114.659V236.909H95.6987V255.642H76.7382ZM93.8026 236.909H76.7382V253.769H93.8026V236.909ZM95.6987 235.036H112.763V218.176H95.6987V235.036ZM114.659 272.501V255.642H131.724V272.501H114.659ZM27.4408 141.372H25.5447V148.865H6.58421V167.598H-1V169.471H6.58421V206.937H46.4013V188.204H65.3618V148.865H27.4408V141.372ZM46.4013 186.331H63.4658V169.471H46.4013V186.331ZM63.4658 167.598H44.5053V186.331H25.5447V205.063H8.48026V169.471H27.4408V150.738H63.4658V167.598ZM27.4408 188.204H44.5053V205.063H27.4408V188.204ZM25.5447 150.738H8.48026V167.598H25.5447V150.738Z" fill="black"/>
</g>
<g opacity="0.05" clip-path="url(#clip11_27_194)">
<path fill-rule="evenodd" clip-rule="evenodd" d="M287.2 281.868V283.741H143.1V281.868H169.645V274.375H150.684V255.642H143.1V253.769H150.684V216.303H190.501V235.036H209.462V274.375H171.541V281.868H256.863V274.375H218.942V235.036H237.903V216.303H277.72V253.769H285.304V169.471H277.72V206.937H237.903V188.204H218.942V148.865H256.863V141.372H258.759V148.865H277.72V167.598H285.304V141.372H287.2V281.868ZM285.304 281.868V255.642H277.72V274.375H258.759V281.868H285.304ZM220.838 169.471V186.331H237.903V169.471H220.838ZM239.799 186.331H258.759V205.063H275.824V169.471H256.863V150.738H220.838V167.598H239.799V186.331ZM239.799 188.204V205.063H256.863V188.204H239.799ZM258.759 167.598H275.824V150.738H258.759V167.598ZM207.566 253.769V236.909H190.501V253.769H207.566ZM188.605 236.909H169.645V218.176H152.58V253.769H171.541V272.501H207.566V255.642H188.605V236.909ZM188.605 235.036V218.176H171.541V235.036H188.605ZM169.645 255.642H152.58V272.501H169.645V255.642ZM220.838 255.642V272.501H256.863V253.769H275.824V218.176H258.759V236.909H239.799V255.642H220.838ZM237.903 236.909H220.838V253.769H237.903V236.909ZM239.799 235.036H256.863V218.176H239.799V235.036ZM258.759 272.501V255.642H275.824V272.501H258.759ZM171.541 141.372H169.645V148.865H150.684V167.598H143.1V169.471H150.684V206.937H190.501V188.204H209.462V148.865H171.541V141.372ZM190.501 186.331H207.566V169.471H190.501V186.331ZM207.566 167.598H188.605V186.331H169.645V205.063H152.58V169.471H171.541V150.738H207.566V167.598ZM171.541 188.204H188.605V205.063H171.541V188.204ZM169.645 150.738H152.58V167.598H169.645V150.738Z" fill="black"/>
</g>
<g opacity="0.05" clip-path="url(#clip12_27_194)">
<path fill-rule="evenodd" clip-rule="evenodd" d="M431.3 281.868V283.741H287.2V281.868H313.745V274.375H294.784V255.642H287.2V253.769H294.784V216.303H334.601V235.036H353.562V274.375H315.641V281.868H400.963V274.375H363.042V235.036H382.003V216.303H421.82V253.769H429.404V169.471H421.82V206.937H382.003V188.204H363.042V148.865H400.963V141.372H402.859V148.865H421.82V167.598H429.404V141.372H431.3V281.868ZM429.404 281.868V255.642H421.82V274.375H402.859V281.868H429.404ZM364.938 169.471V186.331H382.003V169.471H364.938ZM383.899 186.331H402.859V205.063H419.924V169.471H400.963V150.738H364.938V167.598H383.899V186.331ZM383.899 188.204V205.063H400.963V188.204H383.899ZM402.859 167.598H419.924V150.738H402.859V167.598ZM351.666 253.769V236.909H334.601V253.769H351.666ZM332.705 236.909H313.745V218.176H296.68V253.769H315.641V272.501H351.666V255.642H332.705V236.909ZM332.705 235.036V218.176H315.641V235.036H332.705ZM313.745 255.642H296.68V272.501H313.745V255.642ZM364.938 255.642V272.501H400.963V253.769H419.924V218.176H402.859V236.909H383.899V255.642H364.938ZM382.003 236.909H364.938V253.769H382.003V236.909ZM383.899 235.036H400.963V218.176H383.899V235.036ZM402.859 272.501V255.642H419.924V272.501H402.859ZM315.641 141.372H313.745V148.865H294.784V167.598H287.2V169.471H294.784V206.937H334.601V188.204H353.562V148.865H315.641V141.372ZM334.601 186.331H351.666V169.471H334.601V186.331ZM351.666 167.598H332.705V186.331H313.745V205.063H296.68V169.471H315.641V150.738H351.666V167.598ZM315.641 188.204H332.705V205.063H315.641V188.204ZM313.745 150.738H296.68V167.598H313.745V150.738Z" fill="black"/>
</g>
<g opacity="0.05" clip-path="url(#clip13_27_194)">
<path fill-rule="evenodd" clip-rule="evenodd" d="M575.4 281.868V283.741H431.3V281.868H457.845V274.375H438.884V255.642H431.3V253.769H438.884V216.303H478.701V235.036H497.662V274.375H459.741V281.868H545.063V274.375H507.142V235.036H526.103V216.303H565.92V253.769H573.504V169.471H565.92V206.937H526.103V188.204H507.142V148.865H545.063V141.372H546.959V148.865H565.92V167.598H573.504V141.372H575.4V281.868ZM573.504 281.868V255.642H565.92V274.375H546.959V281.868H573.504ZM509.038 169.471V186.331H526.103V169.471H509.038ZM527.999 186.331H546.959V205.063H564.024V169.471H545.063V150.738H509.038V167.598H527.999V186.331ZM527.999 188.204V205.063H545.063V188.204H527.999ZM546.959 167.598H564.024V150.738H546.959V167.598ZM495.766 253.769V236.909H478.701V253.769H495.766ZM476.805 236.909H457.845V218.176H440.78V253.769H459.741V272.501H495.766V255.642H476.805V236.909ZM476.805 235.036V218.176H459.741V235.036H476.805ZM457.845 255.642H440.78V272.501H457.845V255.642ZM509.038 255.642V272.501H545.063V253.769H564.024V218.176H546.959V236.909H527.999V255.642H509.038ZM526.103 236.909H509.038V253.769H526.103V236.909ZM527.999 235.036H545.063V218.176H527.999V235.036ZM546.959 272.501V255.642H564.024V272.501H546.959ZM459.741 141.372H457.845V148.865H438.884V167.598H431.3V169.471H438.884V206.937H478.701V188.204H497.662V148.865H459.741V141.372ZM478.701 186.331H495.766V169.471H478.701V186.331ZM495.766 167.598H476.805V186.331H457.845V205.063H440.78V169.471H459.741V150.738H495.766V167.598ZM459.741 188.204H476.805V205.063H459.741V188.204ZM457.845 150.738H440.78V167.598H457.845V150.738Z" fill="black"/>
</g>
<g opacity="0.05" clip-path="url(#clip14_27_194)">
<path fill-rule="evenodd" clip-rule="evenodd" d="M719.5 281.868V283.741H575.4V281.868H601.945V274.375H582.984V255.642H575.4V253.769H582.984V216.303H622.801V235.036H641.762V274.375H603.841V281.868H689.163V274.375H651.242V235.036H670.203V216.303H710.02V253.769H717.604V169.471H710.02V206.937H670.203V188.204H651.242V148.865H689.163V141.372H691.059V148.865H710.02V167.598H717.604V141.372H719.5V281.868ZM717.604 281.868V255.642H710.02V274.375H691.059V281.868H717.604ZM653.138 169.471V186.331H670.203V169.471H653.138ZM672.099 186.331H691.059V205.063H708.124V169.471H689.163V150.738H653.138V167.598H672.099V186.331ZM672.099 188.204V205.063H689.163V188.204H672.099ZM691.059 167.598H708.124V150.738H691.059V167.598ZM639.866 253.769V236.909H622.801V253.769H639.866ZM620.905 236.909H601.945V218.176H584.88V253.769H603.841V272.501H639.866V255.642H620.905V236.909ZM620.905 235.036V218.176H603.841V235.036H620.905ZM601.945 255.642H584.88V272.501H601.945V255.642ZM653.138 255.642V272.501H689.163V253.769H708.124V218.176H691.059V236.909H672.099V255.642H653.138ZM670.203 236.909H653.138V253.769H670.203V236.909ZM672.099 235.036H689.163V218.176H672.099V235.036ZM691.059 272.501V255.642H708.124V272.501H691.059ZM603.841 141.372H601.945V148.865H582.984V167.598H575.4V169.471H582.984V206.937H622.801V188.204H641.762V148.865H603.841V141.372ZM622.801 186.331H639.866V169.471H622.801V186.331ZM639.866 167.598H620.905V186.331H601.945V205.063H584.88V169.471H603.841V150.738H639.866V167.598ZM603.841 188.204H620.905V205.063H603.841V188.204ZM601.945 150.738H584.88V167.598H601.945V150.738Z" fill="black"/>
</g>
<g opacity="0.05" clip-path="url(#clip15_27_194)">
<path fill-rule="evenodd" clip-rule="evenodd" d="M863.6 281.868V283.741H719.5V281.868H746.045V274.375H727.084V255.642H719.5V253.769H727.084V216.303H766.901V235.036H785.862V274.375H747.941V281.868H833.263V274.375H795.342V235.036H814.303V216.303H854.12V253.769H861.704V169.471H854.12V206.937H814.303V188.204H795.342V148.865H833.263V141.372H835.159V148.865H854.12V167.598H861.704V141.372H863.6V281.868ZM861.704 281.868V255.642H854.12V274.375H835.159V281.868H861.704ZM797.238 169.471V186.331H814.303V169.471H797.238ZM816.199 186.331H835.159V205.063H852.224V169.471H833.263V150.738H797.238V167.598H816.199V186.331ZM816.199 188.204V205.063H833.263V188.204H816.199ZM835.159 167.598H852.224V150.738H835.159V167.598ZM783.966 253.769V236.909H766.901V253.769H783.966ZM765.005 236.909H746.045V218.176H728.98V253.769H747.941V272.501H783.966V255.642H765.005V236.909ZM765.005 235.036V218.176H747.941V235.036H765.005ZM746.045 255.642H728.98V272.501H746.045V255.642ZM797.238 255.642V272.501H833.263V253.769H852.224V218.176H835.159V236.909H816.199V255.642H797.238ZM814.303 236.909H797.238V253.769H814.303V236.909ZM816.199 235.036H833.263V218.176H816.199V235.036ZM835.159 272.501V255.642H852.224V272.501H835.159ZM747.941 141.372H746.045V148.865H727.084V167.598H719.5V169.471H727.084V206.937H766.901V188.204H785.862V148.865H747.941V141.372ZM766.901 186.331H783.966V169.471H766.901V186.331ZM783.966 167.598H765.005V186.331H746.045V205.063H728.98V169.471H747.941V150.738H783.966V167.598ZM747.941 188.204H765.005V205.063H747.941V188.204ZM746.045 150.738H728.98V167.598H746.045V150.738Z" fill="black"/>
</g>
<g opacity="0.05" clip-path="url(#clip16_27_194)">
<path fill-rule="evenodd" clip-rule="evenodd" d="M1007.7 281.868V283.741H863.6V281.868H890.145V274.375H871.184V255.642H863.6V253.769H871.184V216.303H911.001V235.036H929.962V274.375H892.041V281.868H977.363V274.375H939.442V235.036H958.403V216.303H998.22V253.769H1005.8V169.471H998.22V206.937H958.403V188.204H939.442V148.865H977.363V141.372H979.259V148.865H998.22V167.598H1005.8V141.372H1007.7V281.868ZM1005.8 281.868V255.642H998.22V274.375H979.259V281.868H1005.8ZM941.338 169.471V186.331H958.403V169.471H941.338ZM960.299 186.331H979.259V205.063H996.324V169.471H977.363V150.738H941.338V167.598H960.299V186.331ZM960.299 188.204V205.063H977.363V188.204H960.299ZM979.259 167.598H996.324V150.738H979.259V167.598ZM928.066 253.769V236.909H911.001V253.769H928.066ZM909.105 236.909H890.145V218.176H873.08V253.769H892.041V272.501H928.066V255.642H909.105V236.909ZM909.105 235.036V218.176H892.041V235.036H909.105ZM890.145 255.642H873.08V272.501H890.145V255.642ZM941.338 255.642V272.501H977.363V253.769H996.324V218.176H979.259V236.909H960.299V255.642H941.338ZM958.403 236.909H941.338V253.769H958.403V236.909ZM960.299 235.036H977.363V218.176H960.299V235.036ZM979.259 272.501V255.642H996.324V272.501H979.259ZM892.041 141.372H890.145V148.865H871.184V167.598H863.6V169.471H871.184V206.937H911.001V188.204H929.962V148.865H892.041V141.372ZM911.001 186.331H928.066V169.471H911.001V186.331ZM928.066 167.598H909.105V186.331H890.145V205.063H873.08V169.471H892.041V150.738H928.066V167.598ZM892.041 188.204H909.105V205.063H892.041V188.204ZM890.145 150.738H873.08V167.598H890.145V150.738Z" fill="black"/>
</g>
<g opacity="0.05" clip-path="url(#clip17_27_194)">
<path fill-rule="evenodd" clip-rule="evenodd" d="M1151.8 281.868V283.741H1007.7V281.868H1034.24V274.375H1015.28V255.642H1007.7V253.769H1015.28V216.303H1055.1V235.036H1074.06V274.375H1036.14V281.868H1121.46V274.375H1083.54V235.036H1102.5V216.303H1142.32V253.769H1149.9V169.471H1142.32V206.937H1102.5V188.204H1083.54V148.865H1121.46V141.372H1123.36V148.865H1142.32V167.598H1149.9V141.372H1151.8V281.868ZM1149.9 281.868V255.642H1142.32V274.375H1123.36V281.868H1149.9ZM1085.44 169.471V186.331H1102.5V169.471H1085.44ZM1104.4 186.331H1123.36V205.063H1140.42V169.471H1121.46V150.738H1085.44V167.598H1104.4V186.331ZM1104.4 188.204V205.063H1121.46V188.204H1104.4ZM1123.36 167.598H1140.42V150.738H1123.36V167.598ZM1072.17 253.769V236.909H1055.1V253.769H1072.17ZM1053.21 236.909H1034.24V218.176H1017.18V253.769H1036.14V272.501H1072.17V255.642H1053.21V236.909ZM1053.21 235.036V218.176H1036.14V235.036H1053.21ZM1034.24 255.642H1017.18V272.501H1034.24V255.642ZM1085.44 255.642V272.501H1121.46V253.769H1140.42V218.176H1123.36V236.909H1104.4V255.642H1085.44ZM1102.5 236.909H1085.44V253.769H1102.5V236.909ZM1104.4 235.036H1121.46V218.176H1104.4V235.036ZM1123.36 272.501V255.642H1140.42V272.501H1123.36ZM1036.14 141.372H1034.24V148.865H1015.28V167.598H1007.7V169.471H1015.28V206.937H1055.1V188.204H1074.06V148.865H1036.14V141.372ZM1055.1 186.331H1072.17V169.471H1055.1V186.331ZM1072.17 167.598H1053.21V186.331H1034.24V205.063H1017.18V169.471H1036.14V150.738H1072.17V167.598ZM1036.14 188.204H1053.21V205.063H1036.14V188.204ZM1034.24 150.738H1017.18V167.598H1034.24V150.738Z" fill="black"/>
</g>
<g opacity="0.05" clip-path="url(#clip18_27_194)">
<path fill-rule="evenodd" clip-rule="evenodd" d="M1295.9 281.868V283.741H1151.8V281.868H1178.34V274.375H1159.38V255.642H1151.8V253.769H1159.38V216.303H1199.2V235.036H1218.16V274.375H1180.24V281.868H1265.56V274.375H1227.64V235.036H1246.6V216.303H1286.42V253.769H1294V169.471H1286.42V206.937H1246.6V188.204H1227.64V148.865H1265.56V141.372H1267.46V148.865H1286.42V167.598H1294V141.372H1295.9V281.868ZM1294 281.868V255.642H1286.42V274.375H1267.46V281.868H1294ZM1229.54 169.471V186.331H1246.6V169.471H1229.54ZM1248.5 186.331H1267.46V205.063H1284.52V169.471H1265.56V150.738H1229.54V167.598H1248.5V186.331ZM1248.5 188.204V205.063H1265.56V188.204H1248.5ZM1267.46 167.598H1284.52V150.738H1267.46V167.598ZM1216.27 253.769V236.909H1199.2V253.769H1216.27ZM1197.31 236.909H1178.34V218.176H1161.28V253.769H1180.24V272.501H1216.27V255.642H1197.31V236.909ZM1197.31 235.036V218.176H1180.24V235.036H1197.31ZM1178.34 255.642H1161.28V272.501H1178.34V255.642ZM1229.54 255.642V272.501H1265.56V253.769H1284.52V218.176H1267.46V236.909H1248.5V255.642H1229.54ZM1246.6 236.909H1229.54V253.769H1246.6V236.909ZM1248.5 235.036H1265.56V218.176H1248.5V235.036ZM1267.46 272.501V255.642H1284.52V272.501H1267.46ZM1180.24 141.372H1178.34V148.865H1159.38V167.598H1151.8V169.471H1159.38V206.937H1199.2V188.204H1218.16V148.865H1180.24V141.372ZM1199.2 186.331H1216.27V169.471H1199.2V186.331ZM1216.27 167.598H1197.31V186.331H1178.34V205.063H1161.28V169.471H1180.24V150.738H1216.27V167.598ZM1180.24 188.204H1197.31V205.063H1180.24V188.204ZM1178.34 150.738H1161.28V167.598H1178.34V150.738Z" fill="black"/>
</g>
<g opacity="0.05" clip-path="url(#clip19_27_194)">
<path fill-rule="evenodd" clip-rule="evenodd" d="M1440 281.868V283.741H1295.9V281.868H1322.44V274.375H1303.48V255.642H1295.9V253.769H1303.48V216.303H1343.3V235.036H1362.26V274.375H1324.34V281.868H1409.66V274.375H1371.74V235.036H1390.7V216.303H1430.52V253.769H1438.1V169.471H1430.52V206.937H1390.7V188.204H1371.74V148.865H1409.66V141.372H1411.56V148.865H1430.52V167.598H1438.1V141.372H1440V281.868ZM1438.1 281.868V255.642H1430.52V274.375H1411.56V281.868H1438.1ZM1373.64 169.471V186.331H1390.7V169.471H1373.64ZM1392.6 186.331H1411.56V205.063H1428.62V169.471H1409.66V150.738H1373.64V167.598H1392.6V186.331ZM1392.6 188.204V205.063H1409.66V188.204H1392.6ZM1411.56 167.598H1428.62V150.738H1411.56V167.598ZM1360.37 253.769V236.909H1343.3V253.769H1360.37ZM1341.41 236.909H1322.44V218.176H1305.38V253.769H1324.34V272.501H1360.37V255.642H1341.41V236.909ZM1341.41 235.036V218.176H1324.34V235.036H1341.41ZM1322.44 255.642H1305.38V272.501H1322.44V255.642ZM1373.64 255.642V272.501H1409.66V253.769H1428.62V218.176H1411.56V236.909H1392.6V255.642H1373.64ZM1390.7 236.909H1373.64V253.769H1390.7V236.909ZM1392.6 235.036H1409.66V218.176H1392.6V235.036ZM1411.56 272.501V255.642H1428.62V272.501H1411.56ZM1324.34 141.372H1322.44V148.865H1303.48V167.598H1295.9V169.471H1303.48V206.937H1343.3V188.204H1362.26V148.865H1324.34V141.372ZM1343.3 186.331H1360.37V169.471H1343.3V186.331ZM1360.37 167.598H1341.41V186.331H1322.44V205.063H1305.38V169.471H1324.34V150.738H1360.37V167.598ZM1324.34 188.204H1341.41V205.063H1324.34V188.204ZM1322.44 150.738H1305.38V167.598H1322.44V150.738Z" fill="black"/>
</g>
<g opacity="0.05" clip-path="url(#clip20_27_194)">
<path fill-rule="evenodd" clip-rule="evenodd" d="M143.1 424.237V426.11H-1V424.237H25.5447V416.744H6.58421V398.011H-1V396.138H6.58421V358.672H46.4013V377.405H65.3618V416.744H27.4408V424.237H112.763V416.744H74.8421V377.405H93.8026V358.672H133.62V396.138H141.204V311.84H133.62V349.306H93.8026V330.573H74.8421V291.234H112.763V283.741H114.659V291.234H133.62V309.967H141.204V283.741H143.1V424.237ZM141.204 424.237V398.011H133.62V416.744H114.659V424.237H141.204ZM76.7382 311.84V328.7H93.8026V311.84H76.7382ZM95.6987 328.7H114.659V347.433H131.724V311.84H112.763V293.107H76.7382V309.967H95.6987V328.7ZM95.6987 330.573V347.433H112.763V330.573H95.6987ZM114.659 309.967H131.724V293.107H114.659V309.967ZM63.4658 396.138V379.278H46.4013V396.138H63.4658ZM44.5053 379.278H25.5447V360.545H8.48026V396.138H27.4408V414.871H63.4658V398.011H44.5053V379.278ZM44.5053 377.405V360.545H27.4408V377.405H44.5053ZM25.5447 398.011H8.48026V414.871H25.5447V398.011ZM76.7382 398.011V414.871H112.763V396.138H131.724V360.545H114.659V379.278H95.6987V398.011H76.7382ZM93.8026 379.278H76.7382V396.138H93.8026V379.278ZM95.6987 377.405H112.763V360.545H95.6987V377.405ZM114.659 414.871V398.011H131.724V414.871H114.659ZM27.4408 283.741H25.5447V291.234H6.58421V309.967H-1V311.84H6.58421V349.306H46.4013V330.573H65.3618V291.234H27.4408V283.741ZM46.4013 328.7H63.4658V311.84H46.4013V328.7ZM63.4658 309.967H44.5053V328.7H25.5447V347.433H8.48026V311.84H27.4408V293.107H63.4658V309.967ZM27.4408 330.573H44.5053V347.433H27.4408V330.573ZM25.5447 293.107H8.48026V309.967H25.5447V293.107Z" fill="black"/>
</g>
<g opacity="0.05" clip-path="url(#clip21_27_194)">
<path fill-rule="evenodd" clip-rule="evenodd" d="M287.2 424.237V426.11H143.1V424.237H169.645V416.744H150.684V398.011H143.1V396.138H150.684V358.672H190.501V377.405H209.462V416.744H171.541V424.237H256.863V416.744H218.942V377.405H237.903V358.672H277.72V396.138H285.304V311.84H277.72V349.306H237.903V330.573H218.942V291.234H256.863V283.741H258.759V291.234H277.72V309.967H285.304V283.741H287.2V424.237ZM285.304 424.237V398.011H277.72V416.744H258.759V424.237H285.304ZM220.838 311.84V328.7H237.903V311.84H220.838ZM239.799 328.7H258.759V347.433H275.824V311.84H256.863V293.107H220.838V309.967H239.799V328.7ZM239.799 330.573V347.433H256.863V330.573H239.799ZM258.759 309.967H275.824V293.107H258.759V309.967ZM207.566 396.138V379.278H190.501V396.138H207.566ZM188.605 379.278H169.645V360.545H152.58V396.138H171.541V414.871H207.566V398.011H188.605V379.278ZM188.605 377.405V360.545H171.541V377.405H188.605ZM169.645 398.011H152.58V414.871H169.645V398.011ZM220.838 398.011V414.871H256.863V396.138H275.824V360.545H258.759V379.278H239.799V398.011H220.838ZM237.903 379.278H220.838V396.138H237.903V379.278ZM239.799 377.405H256.863V360.545H239.799V377.405ZM258.759 414.871V398.011H275.824V414.871H258.759ZM171.541 283.741H169.645V291.234H150.684V309.967H143.1V311.84H150.684V349.306H190.501V330.573H209.462V291.234H171.541V283.741ZM190.501 328.7H207.566V311.84H190.501V328.7ZM207.566 309.967H188.605V328.7H169.645V347.433H152.58V311.84H171.541V293.107H207.566V309.967ZM171.541 330.573H188.605V347.433H171.541V330.573ZM169.645 293.107H152.58V309.967H169.645V293.107Z" fill="black"/>
</g>
<g opacity="0.05" clip-path="url(#clip22_27_194)">
<path fill-rule="evenodd" clip-rule="evenodd" d="M431.3 424.237V426.11H287.2V424.237H313.745V416.744H294.784V398.011H287.2V396.138H294.784V358.672H334.601V377.405H353.562V416.744H315.641V424.237H400.963V416.744H363.042V377.405H382.003V358.672H421.82V396.138H429.404V311.84H421.82V349.306H382.003V330.573H363.042V291.234H400.963V283.741H402.859V291.234H421.82V309.967H429.404V283.741H431.3V424.237ZM429.404 424.237V398.011H421.82V416.744H402.859V424.237H429.404ZM364.938 311.84V328.7H382.003V311.84H364.938ZM383.899 328.7H402.859V347.433H419.924V311.84H400.963V293.107H364.938V309.967H383.899V328.7ZM383.899 330.573V347.433H400.963V330.573H383.899ZM402.859 309.967H419.924V293.107H402.859V309.967ZM351.666 396.138V379.278H334.601V396.138H351.666ZM332.705 379.278H313.745V360.545H296.68V396.138H315.641V414.871H351.666V398.011H332.705V379.278ZM332.705 377.405V360.545H315.641V377.405H332.705ZM313.745 398.011H296.68V414.871H313.745V398.011ZM364.938 398.011V414.871H400.963V396.138H419.924V360.545H402.859V379.278H383.899V398.011H364.938ZM382.003 379.278H364.938V396.138H382.003V379.278ZM383.899 377.405H400.963V360.545H383.899V377.405ZM402.859 414.871V398.011H419.924V414.871H402.859ZM315.641 283.741H313.745V291.234H294.784V309.967H287.2V311.84H294.784V349.306H334.601V330.573H353.562V291.234H315.641V283.741ZM334.601 328.7H351.666V311.84H334.601V328.7ZM351.666 309.967H332.705V328.7H313.745V347.433H296.68V311.84H315.641V293.107H351.666V309.967ZM315.641 330.573H332.705V347.433H315.641V330.573ZM313.745 293.107H296.68V309.967H313.745V293.107Z" fill="black"/>
</g>
<g opacity="0.05" clip-path="url(#clip23_27_194)">
<path fill-rule="evenodd" clip-rule="evenodd" d="M575.4 424.237V426.11H431.3V424.237H457.845V416.744H438.884V398.011H431.3V396.138H438.884V358.672H478.701V377.405H497.662V416.744H459.741V424.237H545.063V416.744H507.142V377.405H526.103V358.672H565.92V396.138H573.504V311.84H565.92V349.306H526.103V330.573H507.142V291.234H545.063V283.741H546.959V291.234H565.92V309.967H573.504V283.741H575.4V424.237ZM573.504 424.237V398.011H565.92V416.744H546.959V424.237H573.504ZM509.038 311.84V328.7H526.103V311.84H509.038ZM527.999 328.7H546.959V347.433H564.024V311.84H545.063V293.107H509.038V309.967H527.999V328.7ZM527.999 330.573V347.433H545.063V330.573H527.999ZM546.959 309.967H564.024V293.107H546.959V309.967ZM495.766 396.138V379.278H478.701V396.138H495.766ZM476.805 379.278H457.845V360.545H440.78V396.138H459.741V414.871H495.766V398.011H476.805V379.278ZM476.805 377.405V360.545H459.741V377.405H476.805ZM457.845 398.011H440.78V414.871H457.845V398.011ZM509.038 398.011V414.871H545.063V396.138H564.024V360.545H546.959V379.278H527.999V398.011H509.038ZM526.103 379.278H509.038V396.138H526.103V379.278ZM527.999 377.405H545.063V360.545H527.999V377.405ZM546.959 414.871V398.011H564.024V414.871H546.959ZM459.741 283.741H457.845V291.234H438.884V309.967H431.3V311.84H438.884V349.306H478.701V330.573H497.662V291.234H459.741V283.741ZM478.701 328.7H495.766V311.84H478.701V328.7ZM495.766 309.967H476.805V328.7H457.845V347.433H440.78V311.84H459.741V293.107H495.766V309.967ZM459.741 330.573H476.805V347.433H459.741V330.573ZM457.845 293.107H440.78V309.967H457.845V293.107Z" fill="black"/>
</g>
<g opacity="0.05" clip-path="url(#clip24_27_194)">
<path fill-rule="evenodd" clip-rule="evenodd" d="M719.5 424.237V426.11H575.4V424.237H601.945V416.744H582.984V398.011H575.4V396.138H582.984V358.672H622.801V377.405H641.762V416.744H603.841V424.237H689.163V416.744H651.242V377.405H670.203V358.672H710.02V396.138H717.604V311.84H710.02V349.306H670.203V330.573H651.242V291.234H689.163V283.741H691.059V291.234H710.02V309.967H717.604V283.741H719.5V424.237ZM717.604 424.237V398.011H710.02V416.744H691.059V424.237H717.604ZM653.138 311.84V328.7H670.203V311.84H653.138ZM672.099 328.7H691.059V347.433H708.124V311.84H689.163V293.107H653.138V309.967H672.099V328.7ZM672.099 330.573V347.433H689.163V330.573H672.099ZM691.059 309.967H708.124V293.107H691.059V309.967ZM639.866 396.138V379.278H622.801V396.138H639.866ZM620.905 379.278H601.945V360.545H584.88V396.138H603.841V414.871H639.866V398.011H620.905V379.278ZM620.905 377.405V360.545H603.841V377.405H620.905ZM601.945 398.011H584.88V414.871H601.945V398.011ZM653.138 398.011V414.871H689.163V396.138H708.124V360.545H691.059V379.278H672.099V398.011H653.138ZM670.203 379.278H653.138V396.138H670.203V379.278ZM672.099 377.405H689.163V360.545H672.099V377.405ZM691.059 414.871V398.011H708.124V414.871H691.059ZM603.841 283.741H601.945V291.234H582.984V309.967H575.4V311.84H582.984V349.306H622.801V330.573H641.762V291.234H603.841V283.741ZM622.801 328.7H639.866V311.84H622.801V328.7ZM639.866 309.967H620.905V328.7H601.945V347.433H584.88V311.84H603.841V293.107H639.866V309.967ZM603.841 330.573H620.905V347.433H603.841V330.573ZM601.945 293.107H584.88V309.967H601.945V293.107Z" fill="black"/>
</g>
<g opacity="0.05" clip-path="url(#clip25_27_194)">
<path fill-rule="evenodd" clip-rule="evenodd" d="M863.6 424.237V426.11H719.5V424.237H746.045V416.744H727.084V398.011H719.5V396.138H727.084V358.672H766.901V377.405H785.862V416.744H747.941V424.237H833.263V416.744H795.342V377.405H814.303V358.672H854.12V396.138H861.704V311.84H854.12V349.306H814.303V330.573H795.342V291.234H833.263V283.741H835.159V291.234H854.12V309.967H861.704V283.741H863.6V424.237ZM861.704 424.237V398.011H854.12V416.744H835.159V424.237H861.704ZM797.238 311.84V328.7H814.303V311.84H797.238ZM816.199 328.7H835.159V347.433H852.224V311.84H833.263V293.107H797.238V309.967H816.199V328.7ZM816.199 330.573V347.433H833.263V330.573H816.199ZM835.159 309.967H852.224V293.107H835.159V309.967ZM783.966 396.138V379.278H766.901V396.138H783.966ZM765.005 379.278H746.045V360.545H728.98V396.138H747.941V414.871H783.966V398.011H765.005V379.278ZM765.005 377.405V360.545H747.941V377.405H765.005ZM746.045 398.011H728.98V414.871H746.045V398.011ZM797.238 398.011V414.871H833.263V396.138H852.224V360.545H835.159V379.278H816.199V398.011H797.238ZM814.303 379.278H797.238V396.138H814.303V379.278ZM816.199 377.405H833.263V360.545H816.199V377.405ZM835.159 414.871V398.011H852.224V414.871H835.159ZM747.941 283.741H746.045V291.234H727.084V309.967H719.5V311.84H727.084V349.306H766.901V330.573H785.862V291.234H747.941V283.741ZM766.901 328.7H783.966V311.84H766.901V328.7ZM783.966 309.967H765.005V328.7H746.045V347.433H728.98V311.84H747.941V293.107H783.966V309.967ZM747.941 330.573H765.005V347.433H747.941V330.573ZM746.045 293.107H728.98V309.967H746.045V293.107Z" fill="black"/>
</g>
<g opacity="0.05" clip-path="url(#clip26_27_194)">
<path fill-rule="evenodd" clip-rule="evenodd" d="M1007.7 424.237V426.11H863.6V424.237H890.145V416.744H871.184V398.011H863.6V396.138H871.184V358.672H911.001V377.405H929.962V416.744H892.041V424.237H977.363V416.744H939.442V377.405H958.403V358.672H998.22V396.138H1005.8V311.84H998.22V349.306H958.403V330.573H939.442V291.234H977.363V283.741H979.259V291.234H998.22V309.967H1005.8V283.741H1007.7V424.237ZM1005.8 424.237V398.011H998.22V416.744H979.259V424.237H1005.8ZM941.338 311.84V328.7H958.403V311.84H941.338ZM960.299 328.7H979.259V347.433H996.324V311.84H977.363V293.107H941.338V309.967H960.299V328.7ZM960.299 330.573V347.433H977.363V330.573H960.299ZM979.259 309.967H996.324V293.107H979.259V309.967ZM928.066 396.138V379.278H911.001V396.138H928.066ZM909.105 379.278H890.145V360.545H873.08V396.138H892.041V414.871H928.066V398.011H909.105V379.278ZM909.105 377.405V360.545H892.041V377.405H909.105ZM890.145 398.011H873.08V414.871H890.145V398.011ZM941.338 398.011V414.871H977.363V396.138H996.324V360.545H979.259V379.278H960.299V398.011H941.338ZM958.403 379.278H941.338V396.138H958.403V379.278ZM960.299 377.405H977.363V360.545H960.299V377.405ZM979.259 414.871V398.011H996.324V414.871H979.259ZM892.041 283.741H890.145V291.234H871.184V309.967H863.6V311.84H871.184V349.306H911.001V330.573H929.962V291.234H892.041V283.741ZM911.001 328.7H928.066V311.84H911.001V328.7ZM928.066 309.967H909.105V328.7H890.145V347.433H873.08V311.84H892.041V293.107H928.066V309.967ZM892.041 330.573H909.105V347.433H892.041V330.573ZM890.145 293.107H873.08V309.967H890.145V293.107Z" fill="black"/>
</g>
<g opacity="0.05" clip-path="url(#clip27_27_194)">
<path fill-rule="evenodd" clip-rule="evenodd" d="M1151.8 424.237V426.11H1007.7V424.237H1034.24V416.744H1015.28V398.011H1007.7V396.138H1015.28V358.672H1055.1V377.405H1074.06V416.744H1036.14V424.237H1121.46V416.744H1083.54V377.405H1102.5V358.672H1142.32V396.138H1149.9V311.84H1142.32V349.306H1102.5V330.573H1083.54V291.234H1121.46V283.741H1123.36V291.234H1142.32V309.967H1149.9V283.741H1151.8V424.237ZM1149.9 424.237V398.011H1142.32V416.744H1123.36V424.237H1149.9ZM1085.44 311.84V328.7H1102.5V311.84H1085.44ZM1104.4 328.7H1123.36V347.433H1140.42V311.84H1121.46V293.107H1085.44V309.967H1104.4V328.7ZM1104.4 330.573V347.433H1121.46V330.573H1104.4ZM1123.36 309.967H1140.42V293.107H1123.36V309.967ZM1072.17 396.138V379.278H1055.1V396.138H1072.17ZM1053.21 379.278H1034.24V360.545H1017.18V396.138H1036.14V414.871H1072.17V398.011H1053.21V379.278ZM1053.21 377.405V360.545H1036.14V377.405H1053.21ZM1034.24 398.011H1017.18V414.871H1034.24V398.011ZM1085.44 398.011V414.871H1121.46V396.138H1140.42V360.545H1123.36V379.278H1104.4V398.011H1085.44ZM1102.5 379.278H1085.44V396.138H1102.5V379.278ZM1104.4 377.405H1121.46V360.545H1104.4V377.405ZM1123.36 414.871V398.011H1140.42V414.871H1123.36ZM1036.14 283.741H1034.24V291.234H1015.28V309.967H1007.7V311.84H1015.28V349.306H1055.1V330.573H1074.06V291.234H1036.14V283.741ZM1055.1 328.7H1072.17V311.84H1055.1V328.7ZM1072.17 309.967H1053.21V328.7H1034.24V347.433H1017.18V311.84H1036.14V293.107H1072.17V309.967ZM1036.14 330.573H1053.21V347.433H1036.14V330.573ZM1034.24 293.107H1017.18V309.967H1034.24V293.107Z" fill="black"/>
</g>
<g opacity="0.05" clip-path="url(#clip28_27_194)">
<path fill-rule="evenodd" clip-rule="evenodd" d="M1295.9 424.237V426.11H1151.8V424.237H1178.34V416.744H1159.38V398.011H1151.8V396.138H1159.38V358.672H1199.2V377.405H1218.16V416.744H1180.24V424.237H1265.56V416.744H1227.64V377.405H1246.6V358.672H1286.42V396.138H1294V311.84H1286.42V349.306H1246.6V330.573H1227.64V291.234H1265.56V283.741H1267.46V291.234H1286.42V309.967H1294V283.741H1295.9V424.237ZM1294 424.237V398.011H1286.42V416.744H1267.46V424.237H1294ZM1229.54 311.84V328.7H1246.6V311.84H1229.54ZM1248.5 328.7H1267.46V347.433H1284.52V311.84H1265.56V293.107H1229.54V309.967H1248.5V328.7ZM1248.5 330.573V347.433H1265.56V330.573H1248.5ZM1267.46 309.967H1284.52V293.107H1267.46V309.967ZM1216.27 396.138V379.278H1199.2V396.138H1216.27ZM1197.31 379.278H1178.34V360.545H1161.28V396.138H1180.24V414.871H1216.27V398.011H1197.31V379.278ZM1197.31 377.405V360.545H1180.24V377.405H1197.31ZM1178.34 398.011H1161.28V414.871H1178.34V398.011ZM1229.54 398.011V414.871H1265.56V396.138H1284.52V360.545H1267.46V379.278H1248.5V398.011H1229.54ZM1246.6 379.278H1229.54V396.138H1246.6V379.278ZM1248.5 377.405H1265.56V360.545H1248.5V377.405ZM1267.46 414.871V398.011H1284.52V414.871H1267.46ZM1180.24 283.741H1178.34V291.234H1159.38V309.967H1151.8V311.84H1159.38V349.306H1199.2V330.573H1218.16V291.234H1180.24V283.741ZM1199.2 328.7H1216.27V311.84H1199.2V328.7ZM1216.27 309.967H1197.31V328.7H1178.34V347.433H1161.28V311.84H1180.24V293.107H1216.27V309.967ZM1180.24 330.573H1197.31V347.433H1180.24V330.573ZM1178.34 293.107H1161.28V309.967H1178.34V293.107Z" fill="black"/>
</g>
<g opacity="0.05" clip-path="url(#clip29_27_194)">
<path fill-rule="evenodd" clip-rule="evenodd" d="M1440 424.237V426.11H1295.9V424.237H1322.44V416.744H1303.48V398.011H1295.9V396.138H1303.48V358.672H1343.3V377.405H1362.26V416.744H1324.34V424.237H1409.66V416.744H1371.74V377.405H1390.7V358.672H1430.52V396.138H1438.1V311.84H1430.52V349.306H1390.7V330.573H1371.74V291.234H1409.66V283.741H1411.56V291.234H1430.52V309.967H1438.1V283.741H1440V424.237ZM1438.1 424.237V398.011H1430.52V416.744H1411.56V424.237H1438.1ZM1373.64 311.84V328.7H1390.7V311.84H1373.64ZM1392.6 328.7H1411.56V347.433H1428.62V311.84H1409.66V293.107H1373.64V309.967H1392.6V328.7ZM1392.6 330.573V347.433H1409.66V330.573H1392.6ZM1411.56 309.967H1428.62V293.107H1411.56V309.967ZM1360.37 396.138V379.278H1343.3V396.138H1360.37ZM1341.41 379.278H1322.44V360.545H1305.38V396.138H1324.34V414.871H1360.37V398.011H1341.41V379.278ZM1341.41 377.405V360.545H1324.34V377.405H1341.41ZM1322.44 398.011H1305.38V414.871H1322.44V398.011ZM1373.64 398.011V414.871H1409.66V396.138H1428.62V360.545H1411.56V379.278H1392.6V398.011H1373.64ZM1390.7 379.278H1373.64V396.138H1390.7V379.278ZM1392.6 377.405H1409.66V360.545H1392.6V377.405ZM1411.56 414.871V398.011H1428.62V414.871H1411.56ZM1324.34 283.741H1322.44V291.234H1303.48V309.967H1295.9V311.84H1303.48V349.306H1343.3V330.573H1362.26V291.234H1324.34V283.741ZM1343.3 328.7H1360.37V311.84H1343.3V328.7ZM1360.37 309.967H1341.41V328.7H1322.44V347.433H1305.38V311.84H1324.34V293.107H1360.37V309.967ZM1324.34 330.573H1341.41V347.433H1324.34V330.573ZM1322.44 293.107H1305.38V309.967H1322.44V293.107Z" fill="black"/>
</g>
<defs>
<clipPath id="clip0_27_194">
<rect width="144.1" height="142.369" fill="white" transform="translate(-1 0.876038)"/>
</clipPath>
<clipPath id="clip1_27_194">
<rect width="144.1" height="142.369" fill="white" transform="translate(143.1 0.876038)"/>
</clipPath>
<clipPath id="clip2_27_194">
<rect width="144.1" height="142.369" fill="white" transform="translate(287.2 0.876038)"/>
</clipPath>
<clipPath id="clip3_27_194">
<rect width="144.1" height="142.369" fill="white" transform="translate(431.3 0.876038)"/>
</clipPath>
<clipPath id="clip4_27_194">
<rect width="144.1" height="142.369" fill="white" transform="translate(575.4 0.876038)"/>
</clipPath>
<clipPath id="clip5_27_194">
<rect width="144.1" height="142.369" fill="white" transform="translate(719.5 0.876038)"/>
</clipPath>
<clipPath id="clip6_27_194">
<rect width="144.1" height="142.369" fill="white" transform="translate(863.6 0.876038)"/>
</clipPath>
<clipPath id="clip7_27_194">
<rect width="144.1" height="142.369" fill="white" transform="translate(1007.7 0.876038)"/>
</clipPath>
<clipPath id="clip8_27_194">
<rect width="144.1" height="142.369" fill="white" transform="translate(1151.8 0.876038)"/>
</clipPath>
<clipPath id="clip9_27_194">
<rect width="144.1" height="142.369" fill="white" transform="translate(1295.9 0.876038)"/>
</clipPath>
<clipPath id="clip10_27_194">
<rect width="144.1" height="142.369" fill="white" transform="translate(-1 141.372)"/>
</clipPath>
<clipPath id="clip11_27_194">
<rect width="144.1" height="142.369" fill="white" transform="translate(143.1 141.372)"/>
</clipPath>
<clipPath id="clip12_27_194">
<rect width="144.1" height="142.369" fill="white" transform="translate(287.2 141.372)"/>
</clipPath>
<clipPath id="clip13_27_194">
<rect width="144.1" height="142.369" fill="white" transform="translate(431.3 141.372)"/>
</clipPath>
<clipPath id="clip14_27_194">
<rect width="144.1" height="142.369" fill="white" transform="translate(575.4 141.372)"/>
</clipPath>
<clipPath id="clip15_27_194">
<rect width="144.1" height="142.369" fill="white" transform="translate(719.5 141.372)"/>
</clipPath>
<clipPath id="clip16_27_194">
<rect width="144.1" height="142.369" fill="white" transform="translate(863.6 141.372)"/>
</clipPath>
<clipPath id="clip17_27_194">
<rect width="144.1" height="142.369" fill="white" transform="translate(1007.7 141.372)"/>
</clipPath>
<clipPath id="clip18_27_194">
<rect width="144.1" height="142.369" fill="white" transform="translate(1151.8 141.372)"/>
</clipPath>
<clipPath id="clip19_27_194">
<rect width="144.1" height="142.369" fill="white" transform="translate(1295.9 141.372)"/>
</clipPath>
<clipPath id="clip20_27_194">
<rect width="144.1" height="142.369" fill="white" transform="translate(-1 283.741)"/>
</clipPath>
<clipPath id="clip21_27_194">
<rect width="144.1" height="142.369" fill="white" transform="translate(143.1 283.741)"/>
</clipPath>
<clipPath id="clip22_27_194">
<rect width="144.1" height="142.369" fill="white" transform="translate(287.2 283.741)"/>
</clipPath>
<clipPath id="clip23_27_194">
<rect width="144.1" height="142.369" fill="white" transform="translate(431.3 283.741)"/>
</clipPath>
<clipPath id="clip24_27_194">
<rect width="144.1" height="142.369" fill="white" transform="translate(575.4 283.741)"/>
</clipPath>
<clipPath id="clip25_27_194">
<rect width="144.1" height="142.369" fill="white" transform="translate(719.5 283.741)"/>
</clipPath>
<clipPath id="clip26_27_194">
<rect width="144.1" height="142.369" fill="white" transform="translate(863.6 283.741)"/>
</clipPath>
<clipPath id="clip27_27_194">
<rect width="144.1" height="142.369" fill="white" transform="translate(1007.7 283.741)"/>
</clipPath>
<clipPath id="clip28_27_194">
<rect width="144.1" height="142.369" fill="white" transform="translate(1151.8 283.741)"/>
</clipPath>
<clipPath id="clip29_27_194">
<rect width="144.1" height="142.369" fill="white" transform="translate(1295.9 283.741)"/>
</clipPath>
</defs>
</svg>
