<svg width="200" height="200" viewBox="0 0 200 200" fill="none" xmlns="http://www.w3.org/2000/svg">
<g clip-path="url(#clip0_289_252)">
<path fill-rule="evenodd" clip-rule="evenodd" d="M100 0C72.84 0 69.44 0.119999 58.77 0.599999C48.13 1.09 40.86 2.78 34.5 5.25C27.8249 7.75845 21.7775 11.6933 16.78 16.78C11.6936 21.7777 7.75874 27.825 5.25 34.5C2.78 40.86 1.09 48.13 0.599999 58.77C0.109999 69.44 0 72.84 0 100C0 127.16 0.109999 130.56 0.599999 141.23C1.09 151.87 2.78 159.14 5.25 165.5C7.75903 172.175 11.6938 178.222 16.78 183.22C21.7779 188.306 27.8252 192.241 34.5 194.75C40.86 197.22 48.13 198.91 58.77 199.4C69.44 199.88 72.84 200 100 200C127.16 200 130.56 199.88 141.23 199.4C151.87 198.91 159.14 197.22 165.5 194.75C172.175 192.241 178.222 188.306 183.22 183.22C188.306 178.222 192.241 172.175 194.75 165.5C197.22 159.14 198.91 151.87 199.4 141.23C199.88 130.56 200 127.16 200 100C200 72.84 199.88 69.44 199.4 58.77C198.91 48.13 197.22 40.86 194.75 34.5C192.241 27.825 188.306 21.7777 183.22 16.78C178.222 11.6933 172.175 7.75845 165.5 5.25C159.14 2.78 151.87 1.09 141.23 0.599999C130.56 0.119999 127.16 0 100 0ZM100 18.02C126.7 18.02 129.86 18.12 140.4 18.6C150.16 19.05 155.45 20.67 158.98 22.04C163.64 23.86 166.98 26.03 170.48 29.52C173.98 33.02 176.14 36.36 177.96 41.02C179.32 44.55 180.96 49.84 181.4 59.59C181.88 70.14 181.98 73.29 181.98 100C181.98 126.7 181.88 129.86 181.4 140.4C180.95 150.16 179.32 155.45 177.96 158.98C176.357 163.324 173.801 167.253 170.48 170.48C166.98 173.98 163.64 176.14 158.98 177.96C155.45 179.32 150.16 180.96 140.41 181.4C129.87 181.88 126.71 181.98 100 181.98C73.3 181.98 70.13 181.88 59.6 181.4C49.84 180.95 44.55 179.32 41.02 177.96C36.6758 176.357 32.7462 173.801 29.52 170.48C26.1986 167.254 23.6426 163.324 22.04 158.98C20.67 155.45 19.04 150.16 18.6 140.41C18.12 129.86 18.02 126.71 18.02 100C18.02 73.3 18.12 70.14 18.6 59.6C19.05 49.84 20.67 44.55 22.04 41.02C23.86 36.36 26.03 33.02 29.52 29.52C33.02 26.02 36.36 23.86 41.02 22.04C44.55 20.67 49.84 19.04 59.59 18.6C70.14 18.12 73.29 18.02 100 18.02ZM100 133.33C91.1603 133.33 82.6827 129.818 76.4321 123.568C70.1815 117.317 66.67 108.84 66.67 100C66.67 91.1603 70.1815 82.6827 76.4321 76.4321C82.6827 70.1815 91.1603 66.67 100 66.67C108.84 66.67 117.317 70.1815 123.568 76.4321C129.818 82.6827 133.33 91.1603 133.33 100C133.33 108.84 129.818 117.317 123.568 123.568C117.317 129.818 108.84 133.33 100 133.33ZM100 48.65C93.2566 48.65 86.5793 49.9782 80.3492 52.5588C74.1191 55.1394 68.4584 58.9218 63.6901 63.6901C58.9218 68.4584 55.1394 74.1191 52.5588 80.3492C49.9782 86.5793 48.65 93.2566 48.65 100C48.65 106.743 49.9782 113.421 52.5588 119.651C55.1394 125.881 58.9218 131.542 63.6901 136.31C68.4584 141.078 74.1191 144.861 80.3492 147.441C86.5793 150.022 93.2566 151.35 100 151.35C113.619 151.35 126.68 145.94 136.31 136.31C145.94 126.68 151.35 113.619 151.35 100C151.35 86.3811 145.94 73.3201 136.31 63.6901C126.68 54.0601 113.619 48.65 100 48.65ZM165.38 46.62C165.38 48.1959 165.07 49.7563 164.467 51.2122C163.863 52.6681 162.98 53.991 161.865 55.1053C160.751 56.2196 159.428 57.1035 157.972 57.7066C156.516 58.3096 154.956 58.62 153.38 58.62C151.804 58.62 150.244 58.3096 148.788 57.7066C147.332 57.1035 146.009 56.2196 144.895 55.1053C143.78 53.991 142.897 52.6681 142.293 51.2122C141.69 49.7563 141.38 48.1959 141.38 46.62C141.38 43.4374 142.644 40.3852 144.895 38.1347C147.145 35.8843 150.197 34.62 153.38 34.62C156.563 34.62 159.615 35.8843 161.865 38.1347C164.116 40.3852 165.38 43.4374 165.38 46.62Z" fill="black"/>
</g>
<defs>
<clipPath id="clip0_289_252">
<rect width="200" height="200" fill="white"/>
</clipPath>
</defs>
</svg>
