<svg width="200" height="200" viewBox="0 0 200 200" fill="none" xmlns="http://www.w3.org/2000/svg">
<path d="M39.2128 0.0500488C17.6694 0.0500488 0.0374146 17.6816 0.0374146 39.2254V160.794C0.0374146 182.337 17.669 199.963 39.2128 199.963H160.781C182.325 199.963 199.95 182.337 199.95 160.794V39.2254C199.95 17.682 182.325 0.0500488 160.781 0.0500488H39.2128ZM49.066 33.0396C59.3956 33.0396 65.7582 39.8209 65.9546 48.7347C65.9546 57.4517 59.3952 64.4235 48.8662 64.4235H48.6724C38.5394 64.4235 31.99 57.4521 31.99 48.7347C31.99 39.8211 38.7376 33.0396 49.0658 33.0396H49.066ZM138.082 74.7016C157.948 74.7016 172.84 87.686 172.84 115.589V167.679H142.649V119.081C142.649 106.869 138.28 98.5376 127.354 98.5376C119.013 98.5376 114.042 104.153 111.859 109.578C111.062 111.519 110.866 114.229 110.866 116.944V167.679H80.675C80.675 167.679 81.0712 85.3561 80.675 76.8321H110.872V89.6969C114.884 83.5069 122.06 74.7014 138.082 74.7014V74.7016ZM33.7708 76.8386H63.9614V167.679H33.7708V76.8386Z" fill="black"/>
</svg>
